<svg width="213" height="80" viewBox="0 0 213 80" fill="none" xmlns="http://www.w3.org/2000/svg">
<path d="M90.448 42.4292V35.4292V32.5806C90.448 31.8298 90.2258 31.0959 89.8094 30.4712C89.5702 30.1125 89.2718 29.797 88.9269 29.5384L87.9009 28.7689C87.5996 28.5429 87.2786 28.3445 86.9417 28.176C85.9629 27.6866 85.1291 26.95 84.5228 26.039L83.5 24.5024C82.4851 23.1946 81.8513 21.6317 81.6685 19.9864L81.448 18.0024L81.4694 16.5638C81.4898 15.1941 81.6678 13.8314 82 12.5024H85C84.668 13.8308 84.5 15.1948 84.5 16.564V17.2046C84.5 17.7358 84.5377 18.2664 84.6129 18.7922L84.7049 19.4369C84.8988 20.794 85.416 22.0847 86.2129 23.2003C87.024 24.3356 88.1005 25.2554 89.3485 25.8794L89.448 25.9292L91.3799 27.0024C91.5864 27.1172 91.8246 27.1618 92.0586 27.1296C92.5989 27.0553 93.0015 26.5936 93.0015 26.0483V25.9292V25V23H95.948L96.0015 25V26.5C95.9754 26.9543 96.4054 27.2985 96.843 27.1735L99.448 26.4292L101.448 25.9292L103.948 24.9292C105.263 24.2716 106.407 23.3167 107.29 22.1403L107.448 21.9292L108.948 24.4292L108.227 25.3907C107.71 26.0795 107.098 26.6915 106.41 27.2081C105.771 27.6867 105.073 28.0793 104.332 28.3756L102.948 28.9292L99.948 29.9292L97.2903 30.8151C97.0631 30.8908 96.8471 30.9965 96.6478 31.1293C95.8983 31.629 95.448 32.4703 95.448 33.3712V33.9292V36.4292V38.4292V42.4292V49.4292L99.448 44.9292L100.757 43.3582C101.545 42.4123 102.487 41.6057 103.543 40.9722C104.145 40.611 104.78 40.3084 105.44 40.0685L107.047 39.484C108.958 38.7892 110.693 37.6842 112.131 36.2467C113.005 35.3723 113.759 34.3852 114.372 33.3115L115.448 31.4292L118.948 34.4292L116.948 37.4292L115.848 38.804C115.25 39.5518 114.571 40.2311 113.823 40.8294C112.91 41.5592 111.904 42.1625 110.83 42.6227L108.948 43.4292L107.346 44.2304C106.417 44.695 105.539 45.2564 104.728 45.9054C103.877 46.5858 103.105 47.3584 102.424 48.209L101.448 49.4292L97.448 53.9292L95.448 55.9292V60.5H90.448V48.9292C87.4553 46.9341 84.6671 44.6482 82.1238 42.1049L81.948 41.9292C80.6234 40.6045 79.5209 39.075 78.6831 37.3994L78.448 36.9292L78.3622 36.7576C77.4206 34.8744 76.6139 32.9267 75.948 30.9292L75.448 28.4292L74.948 24.9292H78.948C79.2809 26.9261 79.7696 28.8939 80.4098 30.8145L80.448 30.9292L81.448 33.4292C82.1131 34.7593 82.9079 36.0204 83.8208 37.1942L84.2641 37.7642C85.3844 39.2045 86.6342 40.5392 87.998 41.7514L90.448 43.9292V42.4292Z" fill="#2CBD2C"/>
<path d="M115.23 31.7486C115.23 30.2783 115.572 28.8281 116.23 27.513L117.23 26.0128L117.317 25.8829C117.918 24.9807 118.712 24.2234 119.642 23.6655C120.362 23.2335 121.151 22.9286 121.974 22.764L122.321 22.6946C122.926 22.5738 123.541 22.5129 124.157 22.5129L127.73 22.5129L128.23 22.5127L128.23 25.4511C128.23 26.8203 128.062 28.1844 127.73 29.5127L127.394 30.5218C127.285 30.8487 127.153 31.1673 126.999 31.4755L126.893 31.6876C126.457 32.559 125.824 33.317 125.045 33.9016C124.505 34.3064 123.904 34.6214 123.264 34.8348L122.73 35.0127C121.067 35.3452 119.376 35.5127 117.681 35.5127L115.23 35.5127L115.23 31.7486Z" fill="#63E663"/>
<line x1="116.413" y1="34.3938" x2="127.413" y2="23.3938" stroke="white" stroke-width="0.1"/>
<path d="M117.456 33.3799L122.448 34.4292" stroke="white" stroke-width="0.1"/>
<line x1="117.498" y1="26.4292" x2="117.498" y2="33.4259" stroke="white" stroke-width="0.1"/>
<line x1="119.498" y1="25.4292" x2="119.498" y2="31.4259" stroke="white" stroke-width="0.1"/>
<line x1="121.498" y1="24.4292" x2="121.498" y2="29.4259" stroke="white" stroke-width="0.1"/>
<line x1="123.498" y1="23.4292" x2="123.498" y2="27.4259" stroke="white" stroke-width="0.1"/>
<path d="M125.498 22.8857L125.498 25.426" stroke="white" stroke-width="0.1"/>
<path d="M119.451 31.3794L124.448 32.4292" stroke="white" stroke-width="0.1"/>
<path d="M121.451 29.3794L125.948 30.4292" stroke="white" stroke-width="0.1"/>
<path d="M123.451 27.3794L127.448 27.9292" stroke="white" stroke-width="0.1"/>
<path d="M125.451 25.3792L127.948 25.4292" stroke="white" stroke-width="0.1"/>
<path d="M79.0518 26.3927C79.4155 25.2707 79.5128 24.0795 79.3362 22.9134L78.9443 21.5214L78.9103 21.4009C78.6746 20.5638 78.2558 19.7895 77.6844 19.1339C77.2419 18.6262 76.7154 18.1984 76.1279 17.8692L75.8803 17.7305C75.4489 17.4888 74.9948 17.2903 74.5244 17.1378L71.7981 16.2541L71.4167 16.1303L70.69 18.3724C70.3513 19.4171 70.1421 20.4994 70.067 21.5951L70.0741 22.4483C70.0764 22.7246 70.0983 23.0004 70.1396 23.2736L70.1681 23.4617C70.285 24.2344 70.5803 24.9692 71.0304 25.6081C71.3421 26.0503 71.723 26.4395 72.1585 26.7605L72.5219 27.0283C73.7082 27.6932 74.9573 28.2393 76.251 28.6587L78.1209 29.2648L79.0518 26.3927Z" fill="#63E663"/>
<line y1="-0.05" x2="12.4778" y2="-0.05" transform="matrix(-0.454627 -0.890682 -0.890682 0.454627 77.4595 28.1367)" stroke="white" stroke-width="0.1"/>
<path d="M76.9496 27.0869L72.8813 26.653" stroke="white" stroke-width="0.1"/>
<line y1="-0.05" x2="5.6121" y2="-0.05" transform="matrix(-0.30835 0.951273 0.951273 0.30835 78.675 21.7852)" stroke="white" stroke-width="0.1"/>
<line y1="-0.05" x2="4.81" y2="-0.05" transform="matrix(-0.308352 0.951272 0.951272 0.308352 77.3961 20.5278)" stroke="white" stroke-width="0.1"/>
<line y1="-0.05" x2="4.00789" y2="-0.05" transform="matrix(-0.308355 0.951271 0.951271 0.308355 76.1175 19.27)" stroke="white" stroke-width="0.1"/>
<line y1="-0.05" x2="3.20579" y2="-0.05" transform="matrix(-0.30836 0.95127 0.95127 0.30836 74.8389 18.0122)" stroke="white" stroke-width="0.1"/>
<path d="M73.409 17.0908L72.7807 19.0291" stroke="white" stroke-width="0.1"/>
<path d="M75.9225 25.0674L71.8499 24.6325" stroke="white" stroke-width="0.1"/>
<path d="M74.8911 23.0464L71.2001 22.7352" stroke="white" stroke-width="0.1"/>
<path d="M73.8597 21.0254L70.6739 20.4564" stroke="white" stroke-width="0.1"/>
<path d="M72.8283 19.005L70.9105 18.4256" stroke="white" stroke-width="0.1"/>
<path d="M107.635 26.1491C108.684 26.178 109.726 25.9621 110.677 25.5186L111.768 24.8345L111.862 24.7753C112.518 24.3638 113.074 23.8119 113.49 23.1594C113.812 22.6542 114.045 22.0972 114.179 21.513L114.235 21.2667C114.333 20.8377 114.389 20.4001 114.401 19.9602L114.471 17.4106L114.481 17.0538L112.384 16.9962C111.407 16.9693 110.431 17.0623 109.476 17.2732L108.749 17.4934C108.514 17.5648 108.284 17.6527 108.061 17.7566L107.908 17.8281C107.277 18.1219 106.724 18.5585 106.292 19.1032C105.992 19.4803 105.756 19.9033 105.591 20.3557L105.453 20.7332C105.183 21.913 105.031 23.1167 104.997 24.3266L104.949 26.0753L107.635 26.1491Z" fill="#63E663"/>
<line y1="-0.05" x2="11.1049" y2="-0.05" transform="matrix(0.726285 -0.687394 -0.687394 -0.726285 105.746 25.2275)" stroke="white" stroke-width="0.1"/>
<path d="M106.515 24.5283L105.864 20.9457" stroke="white" stroke-width="0.1"/>
<line y1="-0.05" x2="4.99464" y2="-0.05" transform="matrix(-0.999621 -0.0275139 -0.0275139 0.999621 111.475 24.6709)" stroke="white" stroke-width="0.1"/>
<line y1="-0.05" x2="4.28079" y2="-0.05" transform="matrix(-0.999621 -0.0275162 -0.0275162 0.999621 112.228 23.2632)" stroke="white" stroke-width="0.1"/>
<line y1="-0.05" x2="3.56694" y2="-0.05" transform="matrix(-0.999621 -0.0275195 -0.0275195 0.999621 112.981 21.8555)" stroke="white" stroke-width="0.1"/>
<line y1="-0.05" x2="2.85309" y2="-0.05" transform="matrix(-0.999621 -0.0275244 -0.0275244 0.999621 113.733 20.4482)" stroke="white" stroke-width="0.1"/>
<path d="M114.162 18.9961L112.349 18.9462" stroke="white" stroke-width="0.1"/>
<path d="M107.982 23.144L107.331 19.5576" stroke="white" stroke-width="0.1"/>
<path d="M109.448 21.7563L108.787 18.5267" stroke="white" stroke-width="0.1"/>
<path d="M110.915 20.3687L110.601 17.5056" stroke="white" stroke-width="0.1"/>
<path d="M112.381 18.9805L112.395 17.1975" stroke="white" stroke-width="0.1"/>
<path d="M85.2812 15.0946C85.9297 14.2605 86.375 13.2868 86.5818 12.2507L86.6762 10.9587L86.6844 10.8468C86.7411 10.0698 86.6245 9.28982 86.3431 8.56332C86.1252 8.00076 85.8122 7.47987 85.4177 7.02341L85.2514 6.83102C84.9618 6.49588 84.6398 6.19016 84.2901 5.9183L82.2631 4.34249L81.9797 4.12189L80.6838 5.78884C80.0799 6.56558 79.5736 7.41344 79.1762 8.31343L78.9219 9.03427C78.8396 9.26772 78.7739 9.50671 78.7255 9.74946L78.6921 9.91654C78.5549 10.6031 78.5795 11.3121 78.7639 11.9875C78.8915 12.4551 79.0937 12.899 79.3627 13.3023L79.587 13.6386C80.3835 14.5605 81.2691 15.4015 82.231 16.1492L83.6212 17.23L85.2812 15.0946Z" fill="#63E663"/>
<line y1="-0.05" x2="11.1781" y2="-0.05" transform="matrix(-0.124258 -0.99225 -0.99225 0.124258 83.4073 16.0786)" stroke="white" stroke-width="0.1"/>
<path d="M83.2986 15.0386L80.0041 13.4324" stroke="white" stroke-width="0.1"/>
<line y1="-0.05" x2="5.02753" y2="-0.05" transform="matrix(-0.613774 0.789482 0.789482 0.613774 86.3682 11.0991)" stroke="white" stroke-width="0.1"/>
<line y1="-0.05" x2="4.30898" y2="-0.05" transform="matrix(-0.613776 0.789481 0.789481 0.613776 85.6749 9.6499)" stroke="white" stroke-width="0.1"/>
<line y1="-0.05" x2="3.59042" y2="-0.05" transform="matrix(-0.613778 0.789478 0.789478 0.613778 84.9814 8.2002)" stroke="white" stroke-width="0.1"/>
<line y1="-0.05" x2="2.87187" y2="-0.05" transform="matrix(-0.613782 0.789476 0.789476 0.613782 84.2878 6.75098)" stroke="white" stroke-width="0.1"/>
<path d="M83.3648 5.53857L82.2445 6.97964" stroke="white" stroke-width="0.1"/>
<path d="M83.0488 13.0239L79.751 11.4157" stroke="white" stroke-width="0.1"/>
<path d="M82.7966 11.0073L79.7824 9.61957" stroke="white" stroke-width="0.1"/>
<path d="M82.5441 8.99072L80.0341 7.53983" stroke="white" stroke-width="0.1"/>
<path d="M82.2914 6.97379L80.8527 5.90083" stroke="white" stroke-width="0.1"/>
<path d="M95.9006 24.8552C96.4362 24.3442 96.8455 23.7155 97.096 23.019L97.2951 22.1334L97.3123 22.0567C97.4319 21.5241 97.4318 20.9716 97.312 20.4391C97.2192 20.0267 97.0561 19.6334 96.83 19.2763L96.7347 19.1258C96.5686 18.8636 96.3771 18.6184 96.1629 18.3939L94.9213 17.0923L94.7477 16.9101L93.6773 17.9311C93.1785 18.4069 92.7399 18.9421 92.3715 19.5246L92.1207 19.9979C92.0395 20.1511 91.9693 20.3099 91.9106 20.4731L91.8702 20.5854C91.7042 21.047 91.6478 21.5409 91.7057 22.0279C91.7458 22.3652 91.84 22.6937 91.9847 23.001L92.1054 23.2573C92.562 23.9785 93.0887 24.6528 93.6778 25.2704L94.5294 26.1631L95.9006 24.8552Z" fill="#63E663"/>
<line y1="-0.05" x2="7.83168" y2="-0.05" transform="matrix(0.0235842 -0.999722 -0.999722 -0.0235842 94.5002 25.3428)" stroke="white" stroke-width="0.1"/>
<path d="M94.5326 24.6108L92.4157 23.1571" stroke="white" stroke-width="0.1"/>
<line y1="-0.05" x2="3.52244" y2="-0.05" transform="matrix(-0.723596 0.690224 0.690224 0.723596 97.067 22.1982)" stroke="white" stroke-width="0.1"/>
<line y1="-0.05" x2="3.019" y2="-0.05" transform="matrix(-0.723598 0.690222 0.690222 0.723598 96.7364 21.1221)" stroke="white" stroke-width="0.1"/>
<line y1="-0.05" x2="2.51556" y2="-0.05" transform="matrix(-0.7236 0.690219 0.690219 0.7236 96.4057 20.0464)" stroke="white" stroke-width="0.1"/>
<line y1="-0.05" x2="2.01212" y2="-0.05" transform="matrix(-0.723603 0.690216 0.690216 0.723603 96.0751 18.9697)" stroke="white" stroke-width="0.1"/>
<path d="M95.5609 18.0342L94.6355 18.9169" stroke="white" stroke-width="0.1"/>
<path d="M94.5676 23.189L92.4487 21.7334" stroke="white" stroke-width="0.1"/>
<path d="M94.6016 21.7651L92.6565 20.4917" stroke="white" stroke-width="0.1"/>
<path d="M94.6351 20.3418L93.0458 19.0768" stroke="white" stroke-width="0.1"/>
<path d="M94.6685 18.9184L93.7825 18.0261" stroke="white" stroke-width="0.1"/>
<path d="M57.1546 72.432L59.3973 70.1856C61.5291 68.0503 64.2416 66.5888 67.1974 65.9828C68.8879 65.6362 70.6468 65.5794 72.3571 65.8089C73.4934 65.9614 74.624 66.2405 75.6995 66.6374L76.4432 66.9118L83.8009 70.2173C84.2633 70.4251 84.151 71.1112 83.6465 71.1607C83.1539 71.2089 82.9037 70.5839 83.2935 70.2789L89.6101 65.3383C89.7544 65.2255 89.9093 65.1269 90.0726 65.044L91.0393 64.5535C94.2991 62.8994 98.0778 62.5904 101.563 63.6928L105.49 64.9351C106.564 65.2745 107.491 65.9661 108.122 66.8979C109.994 69.6619 113.998 69.8492 116.121 67.2721L121.596 60.6236C123.203 58.6728 125.41 57.3088 127.873 56.7445L128.884 56.5131C133.07 55.5543 137.466 56.5027 140.884 59.1022L145.818 62.8539C146.014 63.0032 146.166 63.203 146.258 63.432L146.562 64.1903C147.118 65.5775 145.232 66.6123 144.361 65.398C143.865 64.7066 144.179 63.7325 144.986 63.4618L151.442 61.2961C151.828 61.1665 152.226 61.0747 152.63 61.022L155.537 60.6434C157.651 60.3681 159.786 60.279 161.915 60.3772L165.013 60.5201L171.07 61.6378C172.279 61.8608 173.469 62.1737 174.631 62.574L176.828 63.3308C178.126 63.7778 179.335 64.4506 180.398 65.3182L184.631 68.7715C185.902 69.8083 187.687 69.9353 189.092 69.0889C189.567 68.803 190.097 68.6219 190.647 68.5577L194.084 68.1572C196.195 67.9112 198.334 68.1456 200.342 68.8428L201.106 69.1084C202.99 69.7626 204.663 70.9104 205.952 72.432L212.25 80H51.25L57.1546 72.432Z" fill="#CE543C"/>
<path d="M9.79266 73.4248C10.7768 72.7641 11.7048 72.0232 12.5672 71.2099L13.5252 70.3065C15.8763 68.0892 18.8096 66.5866 21.9828 65.9741C23.75 65.633 25.5601 65.5741 27.3458 65.7997L27.4265 65.8099C28.6384 65.9631 29.8311 66.2424 30.985 66.6433L31.7579 66.9118L39.545 70.2056C40.0227 70.4077 39.913 71.1141 39.3965 71.1618C38.8933 71.2082 38.648 70.563 39.0549 70.2634L44.7936 66.0373C45.5782 65.4595 46.4157 64.9572 47.2948 64.5372C50.7497 62.8867 54.6944 62.5779 58.364 63.6707L62.6139 64.9364C63.7519 65.2753 64.7454 65.982 65.4389 66.9458C67.457 69.7507 71.5611 69.9457 73.8361 67.3448L79.6478 60.7008C81.4006 58.697 83.7527 57.3117 86.3551 56.7505L87.5355 56.4959C91.9529 55.5432 96.5672 56.5001 100.241 59.1308L105.437 62.8507C105.649 63.002 105.814 63.2086 105.916 63.4478L106.229 64.1824C106.836 65.6091 104.909 66.7301 103.969 65.4967C103.416 64.7711 103.75 63.717 104.62 63.4423L111.472 61.2781C111.844 61.1604 112.227 61.0773 112.615 61.0297L115.775 60.6422C118.014 60.3676 120.272 60.2788 122.526 60.3767L125.829 60.5201L127.695 60.8443C132.02 61.5957 136.286 62.6524 140.462 64.0065L140.663 64.0802C145.032 65.6854 149.606 66.6683 154.25 67L158.216 67.5301C159.478 67.6986 160.721 67.9825 161.931 68.378L164.249 69.1361C166.195 69.7727 167.941 70.9092 169.311 72.432L176 80H0L9.79266 73.4248Z" fill="#EB7259"/>
<circle cx="50.75" cy="72.5" r="2.5" fill="#CE543C"/>
<circle cx="95.75" cy="64.5" r="2.5" fill="#CE543C"/>
<circle cx="83.75" cy="74.5" r="2.5" fill="#CE543C"/>
<circle cx="172.75" cy="65.5" r="2.5" fill="#BA3419"/>
<circle cx="202.75" cy="74.5" r="2.5" fill="#BA3419"/>
<circle cx="143.75" cy="75.5" r="2.5" fill="#CE543C"/>
<ellipse cx="112.25" cy="67" rx="5" ry="3" transform="rotate(26.6646 112.25 67)" fill="#CE543C"/>
<path d="M76.533 72.1677C75.7895 73.6483 73.1861 73.8439 70.7185 72.6048C68.2509 71.3657 64.0065 68.4805 64.7501 66.9999C65.4936 65.5192 72.7824 65.2609 75.25 66.5C77.7176 67.7391 77.2766 70.687 76.533 72.1677Z" fill="#CE543C"/>
<rect x="181.25" y="75.6055" width="4.75919" height="3.16358" rx="1.58179" transform="rotate(-75.3937 181.25 75.6055)" fill="#BA3419"/>
<circle cx="126.75" cy="59.5" r="0.5" fill="#BA3419"/>
</svg>
