<svg width="24" height="24" viewBox="0 0 24 24" fill="none" xmlns="http://www.w3.org/2000/svg">
<path d="M24 12.2739C24.001 11.4562 23.9305 10.6399 23.7891 9.83398H12.2429V14.4555H18.856C18.7207 15.1936 18.4343 15.8972 18.014 16.524C17.5938 17.1507 17.0484 17.6875 16.4107 18.102V21.1019H20.3575C22.6685 19.0137 24 15.9254 24 12.2739Z" fill="#4285F4"/>
<path d="M12.2429 23.9999C15.5469 23.9999 18.3289 22.9366 20.3575 21.1033L16.4107 18.1034C15.3122 18.8334 13.8974 19.25 12.2429 19.25C9.04936 19.25 6.3388 17.1401 5.36952 14.2969H1.30368V17.3884C2.32272 19.3758 3.88531 21.0465 5.81699 22.214C7.74867 23.3815 9.97342 23.9998 12.2429 23.9999Z" fill="#255D46"/>
<path d="M5.36955 14.2971C4.85713 12.8072 4.85713 11.1937 5.36955 9.70387V6.6123H1.30371C0.446457 8.28417 0 10.1294 0 12.0005C0 13.8716 0.446457 15.7168 1.30371 17.3886L5.36955 14.2971Z" fill="#FBBC04"/>
<path d="M12.2429 4.75063C13.9889 4.72267 15.676 5.36924 16.9396 6.55057L20.4341 3.12568C18.2182 1.08588 15.2827 -0.03401 12.2429 0.000787286C9.97342 0.000888658 7.74867 0.619191 5.81699 1.78667C3.88531 2.95414 2.32272 4.62484 1.30368 6.61224L5.36952 9.7038C6.3388 6.86056 9.04936 4.75063 12.2429 4.75063Z" fill="#EA4335"/>
</svg>
