<svg width="30" height="21" viewBox="0 0 30 21" fill="none" xmlns="http://www.w3.org/2000/svg">
<path d="M17.7273 7.74375V5.5125C18.4773 5.20625 19.2443 4.97656 20.0284 4.82344C20.8125 4.67031 21.6364 4.59375 22.5 4.59375C23.0909 4.59375 23.6705 4.6375 24.2386 4.725C24.8068 4.8125 25.3636 4.92188 25.9091 5.05313V7.15313C25.3636 6.95625 24.8125 6.80859 24.2557 6.71016C23.6989 6.61172 23.1136 6.5625 22.5 6.5625C21.6364 6.5625 20.8068 6.66641 20.0114 6.87422C19.2159 7.08203 18.4545 7.37188 17.7273 7.74375ZM17.7273 14.9625V12.7312C18.4773 12.425 19.2443 12.1953 20.0284 12.0422C20.8125 11.8891 21.6364 11.8125 22.5 11.8125C23.0909 11.8125 23.6705 11.8563 24.2386 11.9438C24.8068 12.0313 25.3636 12.1406 25.9091 12.2719V14.3719C25.3636 14.175 24.8125 14.0273 24.2557 13.9289C23.6989 13.8305 23.1136 13.7812 22.5 13.7812C21.6364 13.7812 20.8068 13.8797 20.0114 14.0766C19.2159 14.2734 18.4545 14.5688 17.7273 14.9625ZM17.7273 11.3531V9.12188C18.4773 8.81563 19.2443 8.58594 20.0284 8.43281C20.8125 8.27969 21.6364 8.20312 22.5 8.20312C23.0909 8.20312 23.6705 8.24687 24.2386 8.33437C24.8068 8.42188 25.3636 8.53125 25.9091 8.6625V10.7625C25.3636 10.5656 24.8125 10.418 24.2557 10.3195C23.6989 10.2211 23.1136 10.1719 22.5 10.1719C21.6364 10.1719 20.8068 10.2758 20.0114 10.4836C19.2159 10.6914 18.4545 10.9813 17.7273 11.3531ZM7.5 15.75C8.56818 15.75 9.60795 15.8648 10.6193 16.0945C11.6307 16.3242 12.6364 16.6688 13.6364 17.1281V4.2C12.7045 3.675 11.7159 3.28125 10.6705 3.01875C9.625 2.75625 8.56818 2.625 7.5 2.625C6.68182 2.625 5.86932 2.70156 5.0625 2.85469C4.25568 3.00781 3.47727 3.2375 2.72727 3.54375V16.5375C3.52273 16.275 4.3125 16.0781 5.09659 15.9469C5.88068 15.8156 6.68182 15.75 7.5 15.75ZM16.3636 17.1281C17.3636 16.6688 18.3693 16.3242 19.3807 16.0945C20.392 15.8648 21.4318 15.75 22.5 15.75C23.3182 15.75 24.1193 15.8156 24.9034 15.9469C25.6875 16.0781 26.4773 16.275 27.2727 16.5375V3.54375C26.5227 3.2375 25.7443 3.00781 24.9375 2.85469C24.1307 2.70156 23.3182 2.625 22.5 2.625C21.4318 2.625 20.375 2.75625 19.3295 3.01875C18.2841 3.28125 17.2955 3.675 16.3636 4.2V17.1281ZM15 21C13.9091 20.1688 12.7273 19.5234 11.4545 19.0641C10.1818 18.6047 8.86364 18.375 7.5 18.375C6.54545 18.375 5.60795 18.4953 4.6875 18.7359C3.76705 18.9766 2.88636 19.3156 2.04545 19.7531C1.56818 19.9937 1.10795 19.9828 0.664773 19.7203C0.221591 19.4578 0 19.075 0 18.5719V2.75625C0 2.51563 0.0625 2.28594 0.1875 2.06719C0.3125 1.84844 0.5 1.68438 0.75 1.575C1.79545 1.05 2.88636 0.65625 4.02273 0.39375C5.15909 0.13125 6.31818 0 7.5 0C8.81818 0 10.108 0.164062 11.3693 0.492188C12.6307 0.820312 13.8409 1.3125 15 1.96875C16.1591 1.3125 17.3693 0.820312 18.6307 0.492188C19.892 0.164062 21.1818 0 22.5 0C23.6818 0 24.8409 0.13125 25.9773 0.39375C27.1136 0.65625 28.2045 1.05 29.25 1.575C29.5 1.68438 29.6875 1.84844 29.8125 2.06719C29.9375 2.28594 30 2.51563 30 2.75625V18.5719C30 19.075 29.7784 19.4578 29.3352 19.7203C28.892 19.9828 28.4318 19.9937 27.9545 19.7531C27.1136 19.3156 26.233 18.9766 25.3125 18.7359C24.392 18.4953 23.4545 18.375 22.5 18.375C21.1364 18.375 19.8182 18.6047 18.5455 19.0641C17.2727 19.5234 16.0909 20.1688 15 21Z" fill="#0A910A"/>
</svg>
