<svg width="30" height="46" viewBox="0 0 30 46" fill="none" xmlns="http://www.w3.org/2000/svg">
<path d="M27.9268 31.0068H24.4102L24.1904 44.8867H19.1992V45.708H8.72656V44.8867H3.61328L3.50391 31.0068H0V22.8613H27.9268V31.0068Z" fill="#BA3419"/>
<path d="M9.04614 10.1483C8.56262 10.0101 8.30252 9.4862 8.48469 9.01747C8.61235 8.68902 8.92858 8.47266 9.28096 8.47266H9.54432C9.71222 8.47266 9.87838 8.50678 10.0327 8.57295L10.2874 8.68218C10.69 8.85481 11.0422 9.12678 11.311 9.47262L12.2862 10.7272C12.8239 11.4188 13.5282 11.9628 14.3334 12.308C14.9782 12.5845 15.6724 12.7271 16.3739 12.7271H16.9642H17.7427C17.9517 12.7271 18.1537 12.8019 18.3123 12.9379L18.5047 13.1029C18.5764 13.1644 18.6177 13.2542 18.6177 13.3487C18.6177 13.5275 18.4727 13.6725 18.2939 13.6725H16.9118C16.5899 13.6725 16.2787 13.7877 16.0343 13.9973C15.9201 14.0952 15.8231 14.2116 15.7473 14.3416L15.65 14.5085C15.4277 14.8898 15.3106 15.3232 15.3106 15.7645V23.5995H13.1059V15.0907C13.1059 13.6073 12.3897 12.2153 11.183 11.3528L9.98917 10.4996C9.86319 10.4095 9.72271 10.3418 9.57383 10.2992L9.04614 10.1483Z" fill="#0A910A"/>
<path d="M17.2273 12.6175C16.9166 11.9611 16.7375 11.2668 16.6901 10.5348C16.6427 9.80279 16.74 9.09824 16.982 8.42116C17.2239 7.74407 17.592 7.12113 18.0861 6.55233C18.5802 5.98353 19.2211 5.51264 20.0087 5.13964C20.5192 4.89789 21.0992 4.74155 21.7486 4.67064C22.398 4.59972 23.1293 4.6217 23.9426 4.73659C24.7558 4.85149 25.6544 5.06657 26.6384 5.38186C27.6224 5.69715 28.6969 6.12358 29.862 6.66114C29.5408 7.83108 29.1932 8.88855 28.8191 9.83355C28.4451 10.7785 28.0482 11.6093 27.6285 12.3259C27.2088 13.0425 26.7646 13.6413 26.2959 14.1222C25.8271 14.6031 25.3302 14.9679 24.8051 15.2165C24.032 15.5826 23.2788 15.7831 22.5453 15.8179C21.8119 15.8527 21.112 15.7511 20.4458 15.513C19.7474 15.2634 19.114 14.8825 18.5457 14.3704C17.9775 13.8582 17.538 13.2739 17.2273 12.6175ZM19.1247 13.0047C19.371 13.2988 19.6436 13.5447 19.9425 13.7424C20.2415 13.9401 20.5629 14.1004 20.9067 14.2233C21.401 14.3999 21.9254 14.4753 22.48 14.4492C23.0346 14.4232 23.611 14.2686 24.209 13.9854C24.4715 13.8611 24.7646 13.6598 25.0882 13.3815C25.4119 13.1033 25.747 12.708 26.0937 12.1956C26.4404 11.6832 26.7945 11.0401 27.1558 10.2663C27.5172 9.49249 27.8688 8.54251 28.2107 7.41633C27.6918 7.20667 27.101 6.98644 26.4383 6.75565C25.7755 6.52486 25.0991 6.3407 24.4091 6.20318C23.719 6.06566 23.0401 5.99877 22.3723 6.00251C21.7045 6.00625 21.1153 6.129 20.6048 6.37075C19.9484 6.68158 19.4444 7.04079 19.0927 7.44839C18.7411 7.856 18.4865 8.28012 18.329 8.72076C18.1024 9.35485 18.0245 9.95423 18.0954 10.5189C18.1663 11.0836 18.2585 11.4952 18.372 11.754C19.1306 11.0555 20.0217 10.4437 21.0454 9.91878C22.0692 9.39382 23.1656 9.05542 24.3347 8.90358C23.319 9.30418 22.3711 9.82896 21.4909 10.4779C20.6107 11.1269 19.8219 11.9692 19.1247 13.0047Z" fill="#0A910A"/>
<path d="M9.99256 9.99306C9.47897 10.5065 8.8855 10.9088 8.21213 11.1998C7.53876 11.4907 6.84256 11.6362 6.12354 11.6362C5.40452 11.6362 4.69405 11.4993 3.99215 11.2254C3.29025 10.9516 2.63115 10.5065 2.01484 9.89036C1.61539 9.49097 1.27299 8.99745 0.987667 8.40979C0.702341 7.82213 0.476934 7.12606 0.311444 6.32159C0.145955 5.51712 0.0460911 4.59854 0.011852 3.56585C-0.0223871 2.53316 0.0175585 1.3778 0.131689 0.0997763C1.34147 0.00848866 2.45424 -0.0200386 3.47001 0.0141935C4.48577 0.0484266 5.40166 0.142567 6.2177 0.296615C7.03373 0.450663 7.74704 0.66747 8.35764 0.947038C8.96824 1.22661 9.47897 1.57179 9.88984 1.98258C10.4947 2.58736 10.937 3.22922 11.2166 3.90818C11.4962 4.58713 11.636 5.28034 11.636 5.98782C11.636 6.72953 11.4905 7.45412 11.1995 8.1616C10.9085 8.86908 10.5061 9.47956 9.99256 9.99306ZM9.71865 8.07602C9.91267 7.7451 10.0525 7.40563 10.1381 7.05759C10.2237 6.70956 10.2665 6.35297 10.2665 5.98782C10.2665 5.46291 10.1609 4.94372 9.94976 4.43023C9.73862 3.91673 9.39908 3.42606 8.93115 2.95821C8.72571 2.75282 8.43753 2.54457 8.06661 2.33347C7.69569 2.12236 7.21063 1.93979 6.61145 1.78574C6.01226 1.63169 5.28753 1.51473 4.43726 1.43486C3.58699 1.35498 2.57408 1.34357 1.39854 1.40062C1.37571 1.95976 1.36715 2.59021 1.37286 3.29198C1.37856 3.99376 1.43278 4.69268 1.53549 5.38874C1.63821 6.08481 1.8037 6.74664 2.03196 7.37425C2.26022 8.00185 2.57408 8.51534 2.97354 8.91472C3.48712 9.42821 3.99501 9.78195 4.49718 9.97594C4.99935 10.1699 5.48441 10.2669 5.95234 10.2669C6.62571 10.2669 7.21634 10.1385 7.72422 9.8818C8.2321 9.62505 8.58876 9.39969 8.79419 9.2057C7.88115 8.72644 7.0052 8.09314 6.16634 7.30578C5.32748 6.51843 4.63984 5.59985 4.10343 4.55004C4.82245 5.37163 5.63563 6.08766 6.54297 6.69815C7.45031 7.30863 8.50887 7.76792 9.71865 8.07602Z" fill="#0A910A"/>
</svg>
