<svg width="26" height="41" viewBox="0 0 26 41" fill="none" xmlns="http://www.w3.org/2000/svg">
<path d="M24 28.3652H20.9785L20.7891 40.2939H16.5V41H7.5V40.2939H3.10547L3.01074 28.3652H0V21.3652H24V28.3652ZM4.59375 38.7939H9V39.5H15V38.7939H19.3135L19.4756 28.5H4.51172L4.59375 38.7939ZM1.5 26.8652H22.5V22.8652H1.5V26.8652Z" fill="white"/>
<path d="M7.77422 10.4401C7.35868 10.3213 7.13514 9.87104 7.29171 9.46821C7.40141 9.18594 7.67318 9 7.97602 9H8.20234C8.34664 9 8.48944 9.02933 8.62206 9.0862L8.84096 9.18006C9.18694 9.32843 9.48961 9.56215 9.72064 9.85937L10.5587 10.9375C11.0208 11.5319 11.6261 11.9994 12.3181 12.2961C12.8722 12.5337 13.4688 12.6562 14.0717 12.6562H14.5789H15.248C15.4276 12.6562 15.6012 12.7205 15.7376 12.8374L15.9029 12.9792C15.9645 13.0321 16 13.1092 16 13.1905C16 13.3442 15.8754 13.4688 15.7217 13.4688H14.534C14.2573 13.4688 13.9898 13.5678 13.7798 13.7478C13.6817 13.832 13.5983 13.932 13.5332 14.0437L13.4496 14.1872C13.2585 14.5149 13.1579 14.8873 13.1579 15.2666V22H11.2632V14.6875C11.2632 13.4127 10.6477 12.2164 9.61058 11.4752L8.58465 10.7419C8.47639 10.6645 8.35566 10.6063 8.22771 10.5697L7.77422 10.4401Z" fill="white"/>
<path d="M14.805 12.5619C14.538 11.9978 14.3841 11.4012 14.3434 10.7721C14.3027 10.143 14.3863 9.5375 14.5942 8.95561C14.8022 8.37373 15.1185 7.83837 15.5431 7.34955C15.9677 6.86072 16.5185 6.45603 17.1954 6.13549C17.6341 5.92772 18.1326 5.79337 18.6907 5.73242C19.2488 5.67147 19.8773 5.69037 20.5762 5.7891C21.2751 5.88784 22.0473 6.07269 22.8929 6.34365C23.7386 6.61461 24.662 6.98108 25.6633 7.44306C25.3873 8.44851 25.0885 9.35729 24.7671 10.1694C24.4456 10.9815 24.1045 11.6955 23.7438 12.3114C23.3832 12.9272 23.0014 13.4418 22.5986 13.8551C22.1957 14.2683 21.7687 14.5818 21.3174 14.7955C20.653 15.1102 20.0057 15.2824 19.3754 15.3123C18.745 15.3423 18.1436 15.2549 17.5711 15.0503C16.9708 14.8358 16.4265 14.5085 15.9381 14.0684C15.4498 13.6282 15.0721 13.1261 14.805 12.5619ZM16.4357 12.8947C16.6474 13.1474 16.8816 13.3587 17.1385 13.5287C17.3954 13.6986 17.6716 13.8364 17.9671 13.942C18.3919 14.0938 18.8426 14.1585 19.3193 14.1361C19.7959 14.1138 20.2912 13.9809 20.8051 13.7375C21.0308 13.6307 21.2826 13.4577 21.5607 13.2186C21.8389 12.9794 22.1269 12.6397 22.4249 12.1993C22.7228 11.759 23.0271 11.2063 23.3376 10.5413C23.6482 9.87632 23.9503 9.0599 24.2442 8.09206C23.7983 7.91188 23.2905 7.72262 22.721 7.52428C22.1514 7.32593 21.5701 7.16767 20.9771 7.04948C20.3841 6.9313 19.8006 6.87382 19.2267 6.87703C18.6528 6.88025 18.1464 6.98573 17.7077 7.1935C17.1436 7.46062 16.7104 7.76933 16.4082 8.11962C16.106 8.46992 15.8872 8.8344 15.7519 9.21309C15.5571 9.75803 15.4902 10.2731 15.5511 10.7584C15.612 11.2437 15.6912 11.5975 15.7888 11.8198C16.4407 11.2195 17.2066 10.6938 18.0864 10.2427C18.9662 9.79152 19.9084 9.5007 20.9131 9.37021C20.0403 9.71448 19.2256 10.1655 18.4692 10.7232C17.7127 11.2809 17.0349 12.0048 16.4357 12.8947Z" fill="white"/>
<path d="M8.5876 8.58786C8.14622 9.02915 7.63619 9.37483 7.05749 9.6249C6.4788 9.87497 5.88049 10 5.26256 10C4.64464 10 4.03407 9.88232 3.43085 9.64696C2.82764 9.41161 2.2612 9.02915 1.73155 8.4996C1.38826 8.15637 1.09401 7.73224 0.8488 7.2272C0.603591 6.72216 0.409876 6.12396 0.267655 5.4326C0.125434 4.74124 0.0396107 3.95181 0.0101856 3.06432C-0.0192395 2.17683 0.0150898 1.18392 0.113173 0.0855846C1.15286 0.00713253 2.10917 -0.0173845 2.98212 0.0120354C3.85506 0.0414553 4.64218 0.122359 5.34348 0.254747C6.04478 0.387136 6.6578 0.57346 7.18255 0.813721C7.7073 1.05398 8.14622 1.35063 8.49932 1.70366C9.01916 2.22341 9.39924 2.77503 9.63954 3.35852C9.87985 3.94201 10 4.53776 10 5.14576C10 5.78319 9.87494 6.4059 9.62483 7.01391C9.37472 7.62191 9.02897 8.14656 8.5876 8.58786ZM8.3522 6.94036C8.51894 6.65597 8.63909 6.36422 8.71265 6.06512C8.78622 5.76602 8.823 5.45957 8.823 5.14576C8.823 4.69466 8.73227 4.24846 8.55081 3.80717C8.36936 3.36587 8.07756 2.94419 7.67542 2.54212C7.49887 2.36561 7.25121 2.18664 6.93244 2.00522C6.61366 1.82379 6.19681 1.66689 5.68187 1.5345C5.16693 1.40211 4.5441 1.3016 3.81338 1.23295C3.08265 1.1643 2.21216 1.1545 1.2019 1.20353C1.18228 1.68405 1.17493 2.22586 1.17983 2.82897C1.18474 3.43207 1.23133 4.03272 1.3196 4.63092C1.40788 5.22912 1.5501 5.7979 1.74627 6.33726C1.94243 6.87662 2.21216 7.31791 2.55545 7.66114C2.99683 8.10243 3.4333 8.40644 3.86487 8.57315C4.29644 8.73986 4.71329 8.82321 5.11544 8.82321C5.69413 8.82321 6.20171 8.71289 6.63819 8.49224C7.07466 8.2716 7.38117 8.07792 7.55772 7.91121C6.77305 7.49933 6.02026 6.95507 5.29934 6.27842C4.57843 5.60177 3.98748 4.81234 3.52648 3.91014C4.14441 4.61621 4.84326 5.23157 5.62302 5.75622C6.40278 6.28087 7.31251 6.67558 8.3522 6.94036Z" fill="white"/>
</svg>
