<svg width="27" height="19" viewBox="0 0 27 19" fill="none" xmlns="http://www.w3.org/2000/svg">
<path d="M3.94875 19C2.73375 17.7691 1.77187 16.3425 1.06312 14.72C0.354375 13.0975 0 11.3575 0 9.5C0 7.62014 0.354375 5.86896 1.06312 4.24647C1.77187 2.62397 2.73375 1.20848 3.94875 0L5.8725 1.91343C4.8825 2.89812 4.10625 4.03946 3.54375 5.33746C2.98125 6.63545 2.7 8.02297 2.7 9.5C2.7 10.9994 2.98125 12.3981 3.54375 13.6961C4.10625 14.9941 4.8825 16.1243 5.8725 17.0866L3.94875 19ZM7.7625 15.2067C7.0425 14.4682 6.46875 13.6122 6.04125 12.6387C5.61375 11.6652 5.4 10.619 5.4 9.5C5.4 8.35866 5.61375 7.30124 6.04125 6.32774C6.46875 5.35424 7.0425 4.50942 7.7625 3.79329L9.68625 5.70671C9.19125 6.19906 8.80312 6.76973 8.52187 7.41873C8.24062 8.06773 8.1 8.76148 8.1 9.5C8.1 10.2385 8.24062 10.9323 8.52187 11.5813C8.80312 12.2303 9.19125 12.8009 9.68625 13.2933L7.7625 15.2067ZM11.5931 11.3966C11.0644 10.8707 10.8 10.2385 10.8 9.5C10.8 8.76148 11.0644 8.12927 11.5931 7.60336C12.1219 7.07744 12.7575 6.81449 13.5 6.81449C14.2425 6.81449 14.8781 7.07744 15.4069 7.60336C15.9356 8.12927 16.2 8.76148 16.2 9.5C16.2 10.2385 15.9356 10.8707 15.4069 11.3966C14.8781 11.9226 14.2425 12.1855 13.5 12.1855C12.7575 12.1855 12.1219 11.9226 11.5931 11.3966ZM19.2375 15.2067L17.3138 13.2933C17.8088 12.8009 18.1969 12.2303 18.4781 11.5813C18.7594 10.9323 18.9 10.2385 18.9 9.5C18.9 8.76148 18.7594 8.06773 18.4781 7.41873C18.1969 6.76973 17.8088 6.19906 17.3138 5.70671L19.2375 3.79329C19.9575 4.50942 20.5313 5.35424 20.9588 6.32774C21.3863 7.30124 21.6 8.35866 21.6 9.5C21.6 10.619 21.3863 11.6652 20.9588 12.6387C20.5313 13.6122 19.9575 14.4682 19.2375 15.2067ZM23.0512 19L21.1275 17.0866C22.1175 16.1019 22.8937 14.9605 23.4562 13.6625C24.0187 12.3645 24.3 10.977 24.3 9.5C24.3 8.00059 24.0187 6.60188 23.4562 5.30389C22.8937 4.00589 22.1175 2.87574 21.1275 1.91343L23.0512 0C24.2662 1.20848 25.2281 2.62397 25.9369 4.24647C26.6456 5.86896 27 7.62014 27 9.5C27 11.3575 26.6456 13.0975 25.9369 14.72C25.2281 16.3425 24.2662 17.7691 23.0512 19Z" fill="#0A910A"/>
</svg>
