<svg width="37" height="30" viewBox="0 0 37 30" fill="none" xmlns="http://www.w3.org/2000/svg">
<path d="M16.3889 10.5H19.3889V17.25C19.3889 17.6642 19.7247 18 20.1389 18C20.6321 18 21.1186 17.8852 21.5597 17.6646L22.1219 17.3835C22.2987 17.2951 22.4602 17.1787 22.6 17.0389L22.6086 17.0303C22.9482 16.6908 23.1389 16.2302 23.1389 15.75V15H25.0139V16.0031C25.0139 16.3299 24.9378 16.6522 24.7917 16.9445C24.6905 17.1468 24.5574 17.3316 24.3974 17.4915L23.8889 18C23.3922 18.4968 22.8186 18.9102 22.1902 19.2243L21.6389 19.5L20.406 20.1165C20.2291 20.2049 20.0676 20.3213 19.9278 20.4611L19.9192 20.4697C19.5797 20.8092 19.3889 21.2698 19.3889 21.75V25.2159V30H16.3889V24.75V24L14.8889 23.25L13.3889 22.5L11.8889 21.75L11.7401 21.6756C10.875 21.243 9.87338 21.1718 8.95572 21.4777C8.41857 21.6568 7.93048 21.9584 7.53011 22.3588L7.38892 22.5V20.25L7.65582 19.9831C7.97579 19.6631 8.34525 19.3968 8.74998 19.1945C9.33457 18.9022 9.97918 18.75 10.6328 18.75H10.7639C11.5037 18.75 12.2334 18.9223 12.8951 19.2531L13.3889 19.5L14.8889 20.25L16.3889 21V10.5Z" fill="#119211"/>
<path d="M16.3234 0.0605686C16.3621 0.0217884 16.4147 0 16.4695 0C16.5244 0 16.5769 0.0217884 16.6157 0.0605686L16.8977 0.34273L16.9171 0.362122C17.1311 0.57628 17.3092 0.823538 17.4446 1.09438C17.5364 1.27819 17.6079 1.47149 17.6577 1.67084L17.6635 1.69405C17.7236 1.9347 17.754 2.1818 17.754 2.42985V2.48479C17.754 2.76933 17.7191 3.05279 17.6502 3.32884L17.5827 3.59866L17.4115 4.13188L17.2402 4.62685H16.8977L16.6051 4.13886C16.4579 3.89336 16.3305 3.63649 16.2243 3.3707L16.1974 3.30357C16.0936 3.04387 16.0138 2.77521 15.959 2.50095L15.93 2.35602C15.8902 2.15675 15.8701 1.95403 15.8701 1.75081C15.8701 1.4985 15.901 1.24714 15.9622 1.00235L16.0414 0.68546L16.1849 0.254771C16.2031 0.199921 16.2339 0.150076 16.2748 0.109183L16.3234 0.0605686Z" fill="#F9BF00"/>
<path d="M13.908 1.34469C13.9268 1.29314 13.9653 1.25116 14.0149 1.22798C14.0646 1.20479 14.1215 1.20231 14.173 1.22107L14.5477 1.35755L14.5735 1.36694C14.8579 1.47052 15.1238 1.61929 15.3608 1.80752C15.5217 1.93528 15.6681 2.08026 15.7975 2.23989L15.8125 2.25844C15.9686 2.45112 16.1006 2.66223 16.2053 2.88704L16.2285 2.93683C16.3487 3.19471 16.4368 3.46636 16.4909 3.74571L16.5438 4.01877L16.6138 4.57445L16.6676 5.09547L16.3572 5.24031L15.8858 4.92175C15.6487 4.76152 15.4248 4.58257 15.2163 4.38661L15.1636 4.3371C14.9598 4.14564 14.774 3.9359 14.6085 3.71052L14.521 3.59141C14.4008 3.42765 14.297 3.25241 14.2111 3.06823C14.1046 2.83956 14.0264 2.59867 13.9785 2.35096L13.9164 2.03027L13.8645 1.57928C13.8579 1.52183 13.8648 1.46362 13.8846 1.40927L13.908 1.34469Z" fill="#F9BF00"/>
<path d="M12.8521 2.9164C12.8621 2.86247 12.8931 2.81473 12.9383 2.78369C12.9835 2.75265 13.0392 2.74085 13.0931 2.75088L13.4852 2.82388L13.5122 2.82891C13.8097 2.88431 14.0964 2.98734 14.3611 3.13403C14.5408 3.23359 14.709 3.35253 14.8629 3.48873L14.8807 3.50454C15.0664 3.66893 15.2312 3.85548 15.3714 4.06001L15.4025 4.10529C15.5634 4.3399 15.6949 4.59337 15.7942 4.86003L15.8912 5.12068L16.0515 5.6573L16.1901 6.16238L15.9077 6.3563L15.3904 6.11958C15.1303 6.00052 14.88 5.86082 14.6422 5.70182L14.582 5.66164C14.3496 5.5063 14.1319 5.32997 13.9316 5.13488L13.8257 5.03176C13.6802 4.89001 13.549 4.73422 13.4341 4.56666C13.2915 4.35862 13.1748 4.13386 13.0868 3.8974L12.9729 3.59127L12.8477 3.15496C12.8317 3.09937 12.8289 3.04082 12.8395 2.98395L12.8521 2.9164Z" fill="#F9BF00"/>
<path d="M20.1315 0.575394C20.1823 0.554929 20.2392 0.55552 20.2897 0.577037C20.3401 0.598554 20.3799 0.639233 20.4004 0.690122L20.5492 1.06033L20.5594 1.08582C20.6723 1.36679 20.7393 1.66411 20.7576 1.96636C20.77 2.17149 20.76 2.37737 20.7277 2.58031L20.7239 2.6039C20.6849 2.84887 20.616 3.08811 20.5188 3.31629L20.4972 3.36682C20.3857 3.62856 20.2425 3.87562 20.0709 4.10248L19.9031 4.32423L19.5365 4.74751L19.185 5.13561L18.8699 5.00119L18.792 4.43744C18.7528 4.15386 18.7364 3.8676 18.7428 3.58142L18.7444 3.50911C18.7507 3.22949 18.7826 2.95103 18.8397 2.67724L18.8699 2.53254C18.9113 2.3336 18.9723 2.13926 19.052 1.95233C19.1509 1.72023 19.2779 1.50115 19.4301 1.29998L19.6271 1.03955L19.9279 0.699687C19.9662 0.656393 20.0141 0.622619 20.0677 0.601039L20.1315 0.575394Z" fill="#F9BF00"/>
<path d="M17.9193 0.458905C17.9627 0.425308 18.0176 0.410307 18.072 0.417204C18.1264 0.424102 18.1758 0.452332 18.2094 0.495681L18.4537 0.811077L18.4704 0.832757C18.6559 1.07214 18.8015 1.33984 18.9017 1.62556C18.9698 1.81946 19.0164 2.02023 19.0407 2.22426L19.0436 2.24801C19.073 2.49431 19.0721 2.74328 19.0409 2.98936L19.034 3.04387C18.9983 3.32615 18.9281 3.60297 18.8249 3.86815L18.7242 4.12736L18.4873 4.63479L18.2552 5.1043L17.9153 5.06121L17.6864 4.54027C17.5712 4.27821 17.4771 4.00736 17.4051 3.73031L17.3869 3.66033C17.3166 3.38963 17.2711 3.11306 17.2512 2.83409L17.2407 2.68665C17.2262 2.48395 17.2318 2.28032 17.2573 2.07872C17.289 1.82841 17.3513 1.58293 17.4427 1.34778L17.5611 1.04336L17.7575 0.634143C17.7825 0.582025 17.8194 0.536448 17.865 0.50102L17.9193 0.458905Z" fill="#F9BF00"/>
<path d="M25.3647 7.4989C25.3986 7.542 25.4141 7.59681 25.4077 7.65129C25.4012 7.70578 25.3734 7.75547 25.3303 7.78945L25.0172 8.03651L24.9955 8.05365C24.758 8.24108 24.4918 8.38897 24.2071 8.49164C24.0138 8.56135 23.8135 8.60969 23.6097 8.63579L23.5862 8.6388C23.3403 8.6703 23.0914 8.6715 22.8452 8.64237L22.7907 8.63593C22.5083 8.60253 22.2311 8.5346 21.9652 8.43366L21.7053 8.33498L21.1962 8.1022L20.7251 7.87391L20.7653 7.53355L21.2841 7.30002C21.5449 7.1826 21.8148 7.08624 22.091 7.01188L22.1609 6.99305C22.4308 6.92039 22.7068 6.87263 22.9854 6.85036L23.1327 6.83858C23.3351 6.8224 23.5387 6.82626 23.7404 6.85012C23.9908 6.87974 24.2366 6.93998 24.4724 7.02948L24.7776 7.14537L25.1881 7.33845C25.2405 7.36308 25.2864 7.39957 25.3222 7.44502L25.3647 7.4989Z" fill="#F9BF00"/>
<path d="M23.8395 11.4851C23.8313 11.5393 23.8019 11.5881 23.7578 11.6206C23.7137 11.6532 23.6584 11.6669 23.6042 11.6587L23.2099 11.5991L23.1827 11.595C22.8835 11.5497 22.5935 11.4565 22.324 11.3189C22.141 11.2255 21.9688 11.1124 21.8104 10.9815L21.7921 10.9663C21.6009 10.8083 21.4299 10.6275 21.2827 10.4278L21.2502 10.3836C21.0814 10.1546 20.9413 9.90578 20.8331 9.64266L20.7273 9.38545L20.5488 8.8546L20.3931 8.35453L20.6687 8.15111L21.1938 8.3701C21.4578 8.48024 21.7126 8.61134 21.9558 8.76215L22.0173 8.80027C22.2549 8.94761 22.4784 9.11643 22.6852 9.30459L22.7945 9.40405C22.9448 9.54077 23.0812 9.69201 23.2017 9.85556C23.3514 10.0586 23.4756 10.2793 23.5716 10.5126L23.6958 10.8147L23.8358 11.2465C23.8536 11.3015 23.8584 11.3599 23.8498 11.4171L23.8395 11.4851Z" fill="#F9BF00"/>
<path d="M25.4099 9.50646C25.4291 9.55788 25.4271 9.6148 25.4043 9.6647C25.3815 9.7146 25.3398 9.75341 25.2884 9.77258L24.9148 9.91198L24.8889 9.92164C24.6055 10.0274 24.3068 10.0868 24.0044 10.0974C23.7991 10.1046 23.5936 10.0894 23.3916 10.0519L23.3683 10.0475C23.1245 10.0023 22.8872 9.92724 22.6617 9.82417L22.6118 9.80136C22.3531 9.68314 22.1099 9.53363 21.8877 9.35617L21.6704 9.18269L21.2568 8.80528L20.878 8.44375L21.0203 8.132L21.5856 8.06842C21.8699 8.03644 22.1562 8.02727 22.442 8.041L22.5143 8.04447C22.7934 8.05788 23.0708 8.09686 23.3429 8.16091L23.4867 8.19477C23.6844 8.24131 23.877 8.30728 24.0617 8.39171C24.2911 8.49654 24.5067 8.62912 24.7038 8.78648L24.959 8.99022L25.2909 9.29968C25.3332 9.33914 25.3657 9.38792 25.386 9.44215L25.4099 9.50646Z" fill="#F9BF00"/>
<path d="M22.6737 13.5135C22.6572 13.5658 22.6207 13.6095 22.5721 13.6349C22.5235 13.6602 22.4668 13.6653 22.4145 13.6488L22.034 13.5292L22.0078 13.521C21.7191 13.4302 21.4469 13.2934 21.2017 13.1159C21.0353 12.9955 20.8826 12.8572 20.7462 12.7035L20.7304 12.6856C20.5658 12.5001 20.4246 12.2951 20.31 12.0752L20.2846 12.0265C20.153 11.7742 20.0529 11.5067 19.9864 11.2301L19.9214 10.9597L19.8268 10.4077L19.7498 9.88955L20.0534 9.73101L20.5385 10.0282C20.7825 10.1777 21.0141 10.3465 21.2312 10.533L21.2861 10.5801C21.4982 10.7623 21.6931 10.9635 21.8685 11.1813L21.9612 11.2964C22.0886 11.4546 22.2001 11.625 22.2941 11.8052C22.4107 12.0289 22.4995 12.2661 22.5585 12.5114L22.6348 12.829L22.7067 13.2772C22.7158 13.3343 22.7116 13.3928 22.6943 13.4479L22.6737 13.5135Z" fill="#F9BF00"/>
<path d="M23.3505 12.1401C23.3452 12.1947 23.3185 12.2449 23.2761 12.2798C23.2338 12.3147 23.1794 12.3313 23.1248 12.3261L22.7279 12.2877L22.7005 12.2851C22.3993 12.256 22.1047 12.1785 21.8282 12.0555C21.6405 11.9721 21.4624 11.8684 21.2973 11.7462L21.2781 11.732C21.0788 11.5845 20.8983 11.4131 20.7406 11.2217L20.7057 11.1793C20.5249 10.9597 20.3717 10.7187 20.2495 10.4618L20.1301 10.2107L19.9234 9.69016L19.741 9.19917L20.0054 8.98124L20.5414 9.17171C20.811 9.26751 21.0725 9.38473 21.3234 9.52226L21.3868 9.55702C21.6319 9.69139 21.8643 9.84795 22.0808 10.0247L22.1953 10.1182C22.3527 10.2466 22.497 10.3903 22.6261 10.5472C22.7865 10.7419 22.9224 10.9556 23.0307 11.1834L23.171 11.4784L23.3339 11.902C23.3547 11.956 23.3626 12.0141 23.3571 12.0717L23.3505 12.1401Z" fill="#F9BF00"/>
<path d="M25.2319 6.29317C25.2706 6.33208 25.2923 6.38476 25.2921 6.43962C25.292 6.49448 25.2701 6.54704 25.2312 6.58575L24.9485 6.86713L24.9289 6.88666C24.7144 7.10013 24.4669 7.27763 24.1959 7.41231C24.012 7.50377 23.8185 7.5748 23.619 7.62414L23.596 7.62983C23.3553 7.68937 23.1083 7.71915 22.8603 7.7185L22.8055 7.71836C22.5211 7.71761 22.2379 7.68198 21.9622 7.61225L21.6927 7.54408L21.1603 7.37132L20.666 7.19866L20.6669 6.85593L21.1555 6.56435C21.4012 6.41774 21.6582 6.29102 21.924 6.18542L21.9913 6.15869C22.2511 6.05551 22.5198 5.97636 22.794 5.92223L22.939 5.89361C23.1382 5.85428 23.3408 5.83474 23.5439 5.83527C23.7961 5.83593 24.0472 5.86753 24.2917 5.92936L24.6082 6.00942L25.0381 6.15407C25.093 6.17252 25.1428 6.20349 25.1836 6.24452L25.2319 6.29317Z" fill="#F9BF00"/>
<path d="M22.9796 3.18266C23.0306 3.20295 23.0714 3.24265 23.0931 3.29304C23.1148 3.34343 23.1156 3.40038 23.0953 3.45136L22.9479 3.82209L22.9376 3.84777C22.8258 4.12904 22.6693 4.39045 22.4743 4.62192C22.3419 4.77908 22.1927 4.92127 22.0293 5.04595L22.0105 5.06036C21.8133 5.21082 21.5985 5.33653 21.3708 5.43467L21.3204 5.45638C21.0593 5.56893 20.7853 5.64901 20.5046 5.69483L20.2303 5.73961L19.6731 5.79315L19.151 5.83157L19.0155 5.51679L19.3478 5.05475C19.5148 4.82242 19.7002 4.60382 19.9021 4.40106L19.9532 4.34976C20.1505 4.15165 20.3655 3.97205 20.5955 3.81319L20.7171 3.72921C20.8843 3.61378 21.0624 3.51516 21.2489 3.43477C21.4805 3.33496 21.7235 3.26395 21.9723 3.22333L22.2945 3.17073L22.7465 3.13222C22.8042 3.12731 22.8621 3.13589 22.9159 3.15729L22.9796 3.18266Z" fill="#F9BF00"/>
<path d="M23.786 4.39864C23.8347 4.42378 23.8715 4.46725 23.8882 4.5195C23.9049 4.57176 23.9002 4.62852 23.875 4.6773L23.6924 5.03197L23.6797 5.05656C23.5412 5.32564 23.3601 5.57063 23.1436 5.78209C22.9966 5.92567 22.8343 6.05272 22.6596 6.16097L22.6394 6.17347C22.4287 6.3041 22.2027 6.40838 21.9665 6.48396L21.9143 6.50068C21.6434 6.58737 21.363 6.6405 21.0792 6.65887L20.8018 6.67683L20.2421 6.67607L19.7187 6.66366L19.6144 6.33722L19.9898 5.90957C20.1786 5.69455 20.3843 5.49497 20.6049 5.31275L20.6607 5.26664C20.8763 5.08861 21.1076 4.93071 21.352 4.79492L21.4812 4.72313C21.6587 4.62446 21.8456 4.54358 22.039 4.48166C22.2792 4.40479 22.5278 4.35768 22.7795 4.34139L23.1053 4.3203L23.5588 4.32582C23.6167 4.32652 23.6736 4.34069 23.725 4.3672L23.786 4.39864Z" fill="#F9BF00"/>
<path d="M22.663 1.79608C22.7171 1.8054 22.7652 1.83582 22.7968 1.88064C22.8284 1.92546 22.841 1.98102 22.8316 2.03509L22.7639 2.42829L22.7592 2.45548C22.7078 2.75383 22.6086 3.04193 22.4655 3.30871C22.3684 3.48983 22.2517 3.65976 22.1176 3.81549L22.1021 3.83351C21.9403 4.02144 21.756 4.18881 21.5535 4.33186L21.5086 4.36351C21.2763 4.52759 21.0248 4.66253 20.7596 4.76532L20.5004 4.86581L19.9663 5.03328L19.4634 5.1787L19.2658 4.89869L19.4956 4.37799C19.6111 4.11615 19.7474 3.86396 19.9032 3.62386L19.9425 3.56313C20.0947 3.32854 20.268 3.10839 20.4603 2.90544L20.562 2.79816C20.7017 2.65069 20.8557 2.5174 21.0216 2.40022C21.2276 2.25472 21.4507 2.13506 21.6858 2.04391L21.9902 1.92589L22.4246 1.79485C22.4799 1.77815 22.5384 1.77457 22.5954 1.78441L22.663 1.79608Z" fill="#F9BF00"/>
<path d="M10.4507 6.29317C10.412 6.33208 10.3903 6.38476 10.3905 6.43962C10.3906 6.49448 10.4125 6.54704 10.4514 6.58575L10.7341 6.86713L10.7537 6.88666C10.9682 7.10013 11.2157 7.27763 11.4867 7.41231C11.6707 7.50377 11.8641 7.5748 12.0636 7.62414L12.0866 7.62983C12.3273 7.68937 12.5744 7.71915 12.8223 7.7185L12.8771 7.71836C13.1615 7.71761 13.4447 7.68198 13.7204 7.61225L13.9899 7.54408L14.5223 7.37132L15.0166 7.19866L15.0157 6.85593L14.5271 6.56435C14.2814 6.41774 14.0244 6.29102 13.7586 6.18542L13.6913 6.15869C13.4315 6.05551 13.1628 5.97636 12.8886 5.92223L12.7437 5.89361C12.5444 5.85428 12.3418 5.83474 12.1387 5.83527C11.8865 5.83593 11.6354 5.86753 11.3909 5.92936L11.0744 6.00942L10.6445 6.15407C10.5896 6.17252 10.5398 6.20349 10.499 6.24452L10.4507 6.29317Z" fill="#F9BF00"/>
<path d="M10.8943 8.33974C10.8654 8.38639 10.8562 8.44259 10.8687 8.49601C10.8813 8.54942 10.9145 8.59566 10.9611 8.62456L11.3 8.83473L11.3236 8.8493C11.5807 9.00875 11.8619 9.12567 12.1563 9.19558C12.3562 9.24304 12.5607 9.26848 12.7661 9.27143L12.7898 9.27177C13.0377 9.27532 13.2851 9.24845 13.5265 9.19173L13.5799 9.17919C13.8567 9.11415 14.1245 9.01538 14.3773 8.8851L14.6245 8.75773L15.1041 8.46901L15.5465 8.18903L15.4682 7.85538L14.9264 7.68185C14.654 7.5946 14.375 7.5293 14.0922 7.48656L14.0206 7.47574C13.7443 7.43399 13.4647 7.41766 13.1853 7.42695L13.0376 7.43187C12.8347 7.43862 12.6328 7.46542 12.4351 7.51188C12.1896 7.56955 11.9522 7.65714 11.728 7.77266L11.4378 7.92224L11.0516 8.1604C11.0024 8.19078 10.9609 8.2322 10.9304 8.2814L10.8943 8.33974Z" fill="#F9BF00"/>
<path d="M10.6237 10.4491C10.6034 10.5001 10.6042 10.5571 10.6259 10.6074C10.6476 10.6578 10.6884 10.6975 10.7394 10.7178L11.1099 10.8652L11.1356 10.8755C11.4167 10.9873 11.714 11.0531 12.0161 11.0703C12.2212 11.0819 12.427 11.0711 12.6298 11.038L12.6532 11.0341C12.8979 10.9941 13.1367 10.9243 13.3644 10.8261L13.4148 10.8044C13.6759 10.6918 13.9223 10.5475 14.1483 10.3749L14.3693 10.2062L14.7909 9.83778L15.1775 9.48451L15.0419 9.16976L14.4781 9.09399C14.1946 9.05588 13.9085 9.04053 13.6225 9.04809L13.5502 9.05C13.2708 9.05737 12.9927 9.09035 12.7193 9.14851L12.5747 9.17926C12.3761 9.22152 12.1821 9.28332 11.9956 9.36374C11.764 9.46359 11.5456 9.59149 11.3451 9.74455L11.0856 9.94274L10.7471 10.245C10.704 10.2835 10.6704 10.3316 10.649 10.3853L10.6237 10.4491Z" fill="#F9BF00"/>
<path d="M12.1183 12.424C12.1177 12.4788 12.1388 12.5317 12.1771 12.571C12.2153 12.6103 12.2676 12.6327 12.3225 12.6334L12.7212 12.6384L12.7488 12.6387C13.0513 12.6425 13.3525 12.5975 13.6408 12.5053C13.8364 12.4428 14.0247 12.359 14.2021 12.2555L14.2227 12.2435C14.4369 12.1185 14.6349 11.9677 14.8124 11.7945L14.8517 11.7562C15.0553 11.5575 15.2337 11.3347 15.3831 11.0925L15.5291 10.8558L15.791 10.3609L16.0256 9.89258L15.7864 9.64722L15.2329 9.77834C14.9545 9.84428 14.6818 9.9324 14.4175 10.0419L14.3507 10.0695C14.0924 10.1765 13.8445 10.3069 13.61 10.4591L13.486 10.5395C13.3156 10.6501 13.1566 10.7773 13.0112 10.9192C12.8307 11.0953 12.6724 11.293 12.54 11.5077L12.3686 11.7857L12.1606 12.1891C12.1341 12.2405 12.1199 12.2974 12.1192 12.3553L12.1183 12.424Z" fill="#F9BF00"/>
<path d="M14.1839 14.1605C14.2063 14.2105 14.2477 14.2496 14.2989 14.2691C14.3502 14.2886 14.4071 14.287 14.4571 14.2646L14.821 14.1013L14.846 14.0901C15.1222 13.9662 15.3766 13.7985 15.5994 13.5936C15.7506 13.4545 15.8861 13.2993 16.0036 13.1308L16.0173 13.1112C16.159 12.9077 16.2753 12.6876 16.3636 12.4558L16.3831 12.4044C16.4843 12.1385 16.5525 11.8612 16.5863 11.5787L16.6192 11.3025L16.6489 10.7432L16.6649 10.2197L16.3448 10.0977L15.8977 10.4495C15.6728 10.6265 15.4625 10.8212 15.2686 11.0318L15.2197 11.085C15.0303 11.2907 14.8601 11.5133 14.7114 11.7501L14.6327 11.8752C14.5246 12.0473 14.4338 12.2296 14.3615 12.4195C14.2718 12.6553 14.2113 12.9012 14.1813 13.1517L14.1426 13.4761L14.1235 13.9296C14.1211 13.9874 14.1321 14.045 14.1558 14.0977L14.1839 14.1605Z" fill="#F9BF00"/>
<path d="M16.6662 14.5144C16.7041 14.554 16.7561 14.577 16.8109 14.5783C16.8657 14.5796 16.9188 14.559 16.9585 14.5211L17.2469 14.2456L17.2667 14.2266C17.4856 14.0175 17.6694 13.7744 17.8109 13.5067C17.907 13.3251 17.9829 13.1335 18.0373 12.9354L18.0436 12.9123C18.1093 12.6731 18.1454 12.4268 18.1511 12.1788L18.1524 12.1238C18.159 11.8394 18.1306 11.5552 18.068 11.2776L18.0069 11.0063L17.848 10.4693L17.6882 9.97048L17.3457 9.96257L17.0419 10.4437C16.8891 10.6857 16.7559 10.9396 16.6435 11.2028L16.6151 11.2693C16.5053 11.5266 16.4193 11.7933 16.3582 12.0662L16.3259 12.2104C16.2815 12.4087 16.2568 12.6109 16.2521 12.8141C16.2462 13.0663 16.2714 13.3184 16.3269 13.5645L16.3987 13.8831L16.5322 14.317C16.5492 14.3723 16.5788 14.4228 16.6188 14.4646L16.6662 14.5144Z" fill="#F9BF00"/>
<path d="M18.5453 15.0366C18.5906 15.0673 18.6464 15.0788 18.7002 15.0685C18.7541 15.0581 18.8016 15.0268 18.8323 14.9814L19.0561 14.6511L19.0714 14.6283C19.2412 14.3776 19.3695 14.1012 19.4514 13.8097C19.5069 13.6118 19.5406 13.4085 19.5519 13.2033L19.5533 13.1794C19.5669 12.9318 19.5502 12.6833 19.5034 12.4398L19.493 12.3858C19.4394 12.1064 19.3517 11.8346 19.2319 11.5765L19.1148 11.3243L18.8461 10.833L18.5845 10.3792L18.2482 10.4439L18.0528 10.9784C17.9546 11.2472 17.8779 11.5235 17.8237 11.8046L17.81 11.8756C17.757 12.1502 17.7293 12.4292 17.7272 12.7088L17.7261 12.8566C17.7246 13.0598 17.7431 13.2627 17.7814 13.4623C17.829 13.7101 17.9068 13.9511 18.013 14.1799L18.1505 14.4762L18.3726 14.872C18.4009 14.9224 18.4405 14.9656 18.4884 14.998L18.5453 15.0366Z" fill="#F9BF00"/>
<path d="M20.5458 14.2816C20.5986 14.2965 20.6551 14.2899 20.703 14.2631C20.7508 14.2364 20.7861 14.1917 20.801 14.1389L20.9097 13.755L20.9172 13.7285C20.9996 13.4371 21.0346 13.1344 21.0207 12.8319C21.0113 12.6266 20.9794 12.423 20.9257 12.2246L20.9195 12.2016C20.8547 11.9621 20.7608 11.7316 20.6398 11.515L20.6131 11.4671C20.4744 11.2187 20.3057 10.9882 20.111 10.7809L19.9206 10.5783L19.5112 10.1964L19.1204 9.84783L18.8214 10.015L18.8038 10.5839C18.7949 10.87 18.809 11.1564 18.8458 11.4402L18.8551 11.512C18.891 11.7893 18.9523 12.0628 19.0382 12.329L19.0835 12.4697C19.1459 12.6631 19.2272 12.8498 19.3262 13.0272C19.4492 13.2475 19.5988 13.4518 19.7715 13.6357L19.9951 13.8737L20.3302 14.1796C20.3729 14.2186 20.4241 14.2471 20.4798 14.2629L20.5458 14.2816Z" fill="#F9BF00"/>
<path d="M11.5742 3.49618C11.5204 3.50701 11.4732 3.53877 11.4428 3.58446C11.4125 3.63015 11.4015 3.68603 11.4123 3.73982L11.4911 4.13097L11.4965 4.15803C11.5563 4.45481 11.6634 4.74003 11.8139 5.0027C11.9161 5.18103 12.0374 5.34763 12.1758 5.49954L12.1919 5.51712C12.3589 5.70045 12.5477 5.8626 12.7542 5.99992L12.7999 6.03031C13.0367 6.18782 13.292 6.31568 13.5599 6.41101L13.8218 6.5042L14.3604 6.65666L14.8672 6.78795L15.0568 6.50253L14.8126 5.98846C14.6898 5.72995 14.5465 5.48168 14.3841 5.24603L14.343 5.18642C14.1844 4.95618 14.005 4.74097 13.807 4.54348L13.7024 4.43908C13.5586 4.29559 13.401 4.16665 13.2319 4.05416C13.0219 3.91449 12.7955 3.80111 12.558 3.71658L12.2504 3.60712L11.8126 3.48829C11.7567 3.47314 11.6982 3.4712 11.6415 3.48262L11.5742 3.49618Z" fill="#F9BF00"/>
<ellipse cx="17.7525" cy="7.71101" rx="3.25399" ry="3.25594" fill="#FF7700"/>
<path d="M23.3732 15.8233C23.2043 15.4523 23.1242 15.047 23.1391 14.6396L23.2191 14.1462L23.2261 14.1035C23.2742 13.8068 23.3877 13.5245 23.5582 13.2769C23.6903 13.0853 23.8543 12.9177 24.0432 12.7816L24.1228 12.7243C24.2614 12.6244 24.4096 12.5384 24.5652 12.4676L25.4668 12.0573L25.5929 11.9998L25.9303 12.7413C26.0876 13.0868 26.2019 13.4502 26.2706 13.8236L26.3016 14.1168C26.3117 14.2118 26.3149 14.3074 26.3115 14.4028L26.309 14.4685C26.2992 14.7385 26.2266 15.0024 26.097 15.2394C26.0074 15.4035 25.8918 15.5521 25.7548 15.6794L25.6405 15.7856C25.2592 16.0605 24.8516 16.297 24.4238 16.4917L23.8054 16.7731L23.3732 15.8233Z" fill="#63E663"/>
<line x1="23.9405" y1="16.3418" x2="25.4529" y2="12.3029" stroke="white" stroke-width="0.1"/>
<path d="M24.1213 15.9795L25.5014 15.671" stroke="white" stroke-width="0.1"/>
<line x1="23.3663" y1="14.2059" x2="24.1698" y2="15.9714" stroke="white" stroke-width="0.1"/>
<line x1="23.756" y1="13.7234" x2="24.4447" y2="15.2366" stroke="white" stroke-width="0.1"/>
<line x1="24.1456" y1="13.2415" x2="24.7195" y2="14.5023" stroke="white" stroke-width="0.1"/>
<line x1="24.536" y1="12.7586" x2="24.995" y2="13.7671" stroke="white" stroke-width="0.1"/>
<path d="M24.9451 12.4082L25.2368 13.0492" stroke="white" stroke-width="0.1"/>
<path d="M24.3953 15.2456L25.7768 14.9366" stroke="white" stroke-width="0.1"/>
<path d="M24.6697 14.5107L25.925 14.2592" stroke="white" stroke-width="0.1"/>
<path d="M24.9451 13.7764L26.0168 13.4561" stroke="white" stroke-width="0.1"/>
<path d="M25.2197 13.0415L25.8556 12.7674" stroke="white" stroke-width="0.1"/>
<path d="M9.18542 21.4613C8.87878 22.0125 8.44799 22.4847 7.92717 22.8405L7.23947 23.1944L7.17992 23.2251C6.76631 23.4378 6.31062 23.5561 5.84575 23.5713C5.48578 23.5831 5.12646 23.5329 4.78351 23.4229L4.63896 23.3766C4.38716 23.2958 4.14394 23.1904 3.91286 23.0618L2.57341 22.3167L2.38596 22.2125L2.99876 21.111C3.2843 20.5977 3.63171 20.1214 4.03321 19.6927L4.36977 19.3845C4.47876 19.2847 4.5947 19.1928 4.71672 19.1094L4.8007 19.052C5.14578 18.8162 5.54102 18.664 5.95513 18.6074C6.24183 18.5682 6.53297 18.5755 6.81735 18.629L7.05457 18.6736C7.74717 18.8957 8.41615 19.1856 9.05175 19.5392L9.97041 20.0503L9.18542 21.4613Z" fill="#63E663"/>
<line x1="9.30106" y1="20.2512" x2="2.88348" y2="22.0808" stroke="white" stroke-width="0.1"/>
<path d="M8.69043 20.3857L7.03801 18.9514" stroke="white" stroke-width="0.1"/>
<line x1="7.2002" y1="22.9689" x2="8.6593" y2="20.346" stroke="white" stroke-width="0.1"/>
<line x1="6.24219" y1="22.9259" x2="7.49275" y2="20.6779" stroke="white" stroke-width="0.1"/>
<line x1="5.28394" y1="22.8839" x2="6.32595" y2="21.0107" stroke="white" stroke-width="0.1"/>
<line x1="4.32545" y1="22.8409" x2="5.15891" y2="21.3426" stroke="white" stroke-width="0.1"/>
<path d="M3.48779 22.6416L4.01754 21.6893" stroke="white" stroke-width="0.1"/>
<path d="M7.52588 20.7178L5.87155 19.2821" stroke="white" stroke-width="0.1"/>
<path d="M6.35913 21.0518L4.89224 19.7204" stroke="white" stroke-width="0.1"/>
<path d="M5.19238 21.3848L3.80865 20.3451" stroke="white" stroke-width="0.1"/>
<path d="M4.0247 21.7174L3.09899 21.1778" stroke="white" stroke-width="0.1"/>
<path d="M36.2266 9.25H34.6064L32.5566 4.89355L32.3457 4.44629L32.1104 4.88086L29.7461 9.25H28.4336L32.3301 2.5L36.2266 9.25Z" stroke="#F9BF00" stroke-width="0.5"/>
<path d="M36.2266 15.25H34.6064L32.5566 10.8936L32.3457 10.4463L32.1104 10.8809L29.7461 15.25H28.4336L32.3301 8.5L36.2266 15.25Z" stroke="#F9BF00" stroke-width="0.5"/>
</svg>
