<svg width="229" height="49" viewBox="0 0 229 49" fill="none" xmlns="http://www.w3.org/2000/svg">
<path d="M20.3 33.8896C20.3 33.0774 20.2004 32.2682 20.0034 31.4803L19.8764 30.9721C18.9992 27.4636 16.134 24.8036 12.5701 24.1891C11.9693 24.0855 11.3804 23.922 10.8122 23.701L9.03822 23.0112C7.99323 22.6048 6.99233 22.0931 6.05098 21.484L5.1175 20.8799C4.04813 20.188 3.11391 19.3069 2.36069 18.2797C1.42142 16.9989 0.785688 15.5213 0.501563 13.9586L0 11.2L5.83333 10.9667L9.20794 11.2601C10.5283 11.3749 11.8235 11.6901 13.049 12.1947L13.2821 12.2907C14.529 12.8041 15.677 13.5306 16.6747 14.4376C17.3778 15.0768 17.9999 15.7998 18.5269 16.5904L18.5606 16.6409C19.5524 18.1285 20.2025 19.8172 20.4646 21.5857L21 25.2L21.4667 26.3667L21.7 23.1V21.833C21.7 19.122 22.1876 16.4331 23.1395 13.8947C23.5791 12.7225 24.1153 11.5888 24.7425 10.5054L25.3326 9.48617C26.019 8.30046 26.8573 7.20939 27.8261 6.24059L28.1883 5.87837C29.1454 4.92127 30.2505 4.12473 31.4612 3.51941C32.1081 3.19596 32.7816 2.92884 33.4744 2.72101L37.1 1.63333L42.9333 0.7L47.3667 0.35L51.8 0V1.41218C51.8 2.64506 51.6698 3.87448 51.4114 5.07998C51.2042 6.04714 50.9153 6.995 50.548 7.91337L49.7 10.0333L48.6705 11.9779C47.9599 13.3202 47.0766 14.5637 46.0431 15.6766C45.0626 16.7326 43.9547 17.6626 42.745 18.4454L42.1288 18.8441C41.1112 19.5026 40.0436 20.0806 38.936 20.5729L36.4 21.7L31.85 23.2167L28.1724 24.4425C27.5934 24.6355 27.0427 24.9049 26.5349 25.2434C25.2188 26.1208 24.2459 27.4257 23.7808 28.9375L23.1875 30.8657C22.8201 32.0596 22.6333 33.3018 22.6333 34.551V49H20.3V33.8896Z" fill="#70D770"/>
<path d="M21.2333 31.2667L20.0666 26.8333L19.2647 24.8285C18.867 23.8344 18.3672 22.8842 17.7733 21.9934C17.1265 21.0231 16.3719 20.1291 15.5241 19.3284L14.8602 18.7013C13.3599 17.2843 11.6796 16.071 9.86258 15.0927L9.56659 14.9333L9.60031 14.9437C11.5829 15.5537 13.4351 16.526 15.0632 17.8113C16.3693 18.8425 17.5148 20.0621 18.462 21.4303L19.1333 22.4L21.2333 26.1334L22.3999 23.099L23.6699 20.444C24.5317 18.6425 25.5922 16.943 26.8317 15.3771C28.5338 13.2268 30.5559 11.3505 32.8274 9.81384L37.3332 6.76571L34.3707 9.27944C31.2267 11.9471 28.456 15.0258 26.1333 18.4325L24.7332 21.2324L23.0999 25.199L22.3999 27.5334L21.2333 31.2667Z" fill="white"/>
<path d="M66.688 37.752C65.104 37.752 63.848 37.616 62.92 37.344C61.992 37.072 61.304 36.688 60.856 36.192C60.408 35.712 60.112 35.144 59.968 34.488C59.84 33.816 59.776 33.096 59.776 32.328C59.776 31.048 59.808 29.584 59.872 27.936C59.952 26.288 60.048 24.52 60.16 22.632C60.288 20.728 60.424 18.76 60.568 16.728L64.936 17.16C64.776 18.392 64.632 19.656 64.504 20.952C64.392 22.232 64.296 23.48 64.216 24.696C64.136 25.912 64.072 27.016 64.024 28.008C63.976 29 63.936 29.832 63.904 30.504C63.888 31.16 63.88 31.584 63.88 31.776C63.88 32.336 63.944 32.76 64.072 33.048C64.2 33.32 64.456 33.504 64.84 33.6C65.224 33.696 65.784 33.744 66.52 33.744C67.448 33.744 68.496 33.688 69.664 33.576C70.832 33.448 72.016 33.264 73.216 33.024C74.416 32.784 75.512 32.496 76.504 32.16L77.44 36.288C76.352 36.56 75.176 36.808 73.912 37.032C72.664 37.256 71.416 37.432 70.168 37.56C68.92 37.688 67.76 37.752 66.688 37.752ZM86.3219 37.92C84.7859 37.92 83.4339 37.616 82.2659 37.008C81.1139 36.416 80.2099 35.584 79.5539 34.512C78.9139 33.44 78.5939 32.2 78.5939 30.792C78.5939 29.944 78.7379 29.056 79.0259 28.128C79.3139 27.184 79.7779 26.304 80.4179 25.488C81.0579 24.672 81.8979 24.008 82.9379 23.496C83.9939 22.984 85.2739 22.728 86.7779 22.728C87.8659 22.728 88.7779 22.848 89.5139 23.088C90.2659 23.328 90.8739 23.64 91.3379 24.024C91.8179 24.408 92.1779 24.816 92.4179 25.248C92.6739 25.68 92.8419 26.096 92.9219 26.496C93.0179 26.88 93.0659 27.2 93.0659 27.456C93.0659 29.008 92.4099 30.208 91.0979 31.056C89.8019 31.888 87.9619 32.304 85.5779 32.304C85.0339 32.304 84.5139 32.28 84.0179 32.232C83.5379 32.184 83.0899 32.128 82.6739 32.064C82.9779 32.864 83.4819 33.456 84.1859 33.84C84.8899 34.208 85.6179 34.392 86.3699 34.392C87.4579 34.392 88.4179 34.2 89.2499 33.816C90.0819 33.416 90.8659 32.808 91.6019 31.992L93.7379 35.064C93.2259 35.48 92.6499 35.912 92.0099 36.36C91.3859 36.808 90.6179 37.176 89.7059 37.464C88.7939 37.768 87.6659 37.92 86.3219 37.92ZM86.8499 26.328C85.9059 26.328 85.0739 26.568 84.3539 27.048C83.6339 27.528 83.1059 28.16 82.7699 28.944C83.1699 29.008 83.5619 29.064 83.9459 29.112C84.3459 29.144 84.7379 29.16 85.1219 29.16C85.4739 29.16 85.8739 29.128 86.3219 29.064C86.7859 29 87.2339 28.904 87.6659 28.776C88.1139 28.648 88.4819 28.488 88.7699 28.296C89.0579 28.088 89.2019 27.848 89.2019 27.576C89.2019 27.448 89.1379 27.288 89.0099 27.096C88.8819 26.904 88.6499 26.728 88.3139 26.568C87.9779 26.408 87.4899 26.328 86.8499 26.328ZM102.797 37.896C101.837 37.896 101.077 37.688 100.517 37.272C99.9573 36.872 99.5493 36.312 99.2933 35.592C99.0373 34.872 98.8693 34.048 98.7893 33.12C98.7253 32.192 98.6933 31.216 98.6933 30.192C98.6933 29.136 98.7333 28.04 98.8133 26.904C97.7413 27.048 96.7093 27.232 95.7173 27.456L94.9733 23.688C96.3013 23.336 97.7173 23.08 99.2213 22.92C99.3333 22.104 99.4533 21.248 99.5813 20.352C99.7093 19.44 99.8533 18.48 100.013 17.472L104.141 17.832C103.949 18.664 103.781 19.496 103.637 20.328C103.493 21.144 103.365 21.936 103.253 22.704C104.149 22.704 104.989 22.728 105.773 22.776C106.573 22.808 107.309 22.872 107.981 22.968L107.501 26.736C106.941 26.672 106.357 26.632 105.749 26.616C105.157 26.584 104.557 26.568 103.949 26.568C103.581 26.568 103.213 26.576 102.845 26.592C102.749 27.76 102.685 28.76 102.653 29.592C102.637 30.424 102.629 31.016 102.629 31.368C102.629 32.248 102.677 32.88 102.773 33.264C102.885 33.648 103.061 33.84 103.301 33.84C103.573 33.84 103.877 33.752 104.213 33.576C104.549 33.384 104.877 33.128 105.197 32.808C105.533 32.488 105.813 32.144 106.037 31.776L107.885 35.64C106.301 37.144 104.605 37.896 102.797 37.896ZM115.096 20.496C115.096 20.352 115.088 20.208 115.072 20.064C115.072 19.904 115.072 19.728 115.072 19.536C115.072 19.024 115.088 18.48 115.12 17.904C115.152 17.328 115.184 16.84 115.216 16.44L119.488 16.512C119.44 17.056 119.384 17.672 119.32 18.36C119.272 19.048 119.24 19.76 119.224 20.496H115.096ZM115 37.68C114.952 36.688 114.92 35.632 114.904 34.512C114.888 33.376 114.88 32.24 114.88 31.104C114.88 29.616 114.896 28.168 114.928 26.76C114.96 25.352 115 24.072 115.048 22.92L119.176 22.896C119.112 23.632 119.072 24.544 119.056 25.632C119.04 26.704 119.032 27.832 119.032 29.016C119.032 30.184 119.04 31.336 119.056 32.472C119.072 33.608 119.088 34.64 119.104 35.568C119.136 36.48 119.16 37.184 119.176 37.68H115ZM128.696 37.896C127.736 37.896 126.976 37.688 126.416 37.272C125.856 36.872 125.448 36.312 125.192 35.592C124.936 34.872 124.768 34.048 124.688 33.12C124.624 32.192 124.592 31.216 124.592 30.192C124.592 29.136 124.632 28.04 124.712 26.904C123.64 27.048 122.608 27.232 121.616 27.456L120.872 23.688C122.2 23.336 123.616 23.08 125.12 22.92C125.232 22.104 125.352 21.248 125.48 20.352C125.608 19.44 125.752 18.48 125.912 17.472L130.04 17.832C129.848 18.664 129.68 19.496 129.536 20.328C129.392 21.144 129.264 21.936 129.152 22.704C130.048 22.704 130.888 22.728 131.672 22.776C132.472 22.808 133.208 22.872 133.88 22.968L133.4 26.736C132.84 26.672 132.256 26.632 131.648 26.616C131.056 26.584 130.456 26.568 129.848 26.568C129.48 26.568 129.112 26.576 128.744 26.592C128.648 27.76 128.584 28.76 128.552 29.592C128.536 30.424 128.528 31.016 128.528 31.368C128.528 32.248 128.576 32.88 128.672 33.264C128.784 33.648 128.96 33.84 129.2 33.84C129.472 33.84 129.776 33.752 130.112 33.576C130.448 33.384 130.776 33.128 131.096 32.808C131.432 32.488 131.712 32.144 131.936 31.776L133.784 35.64C132.2 37.144 130.504 37.896 128.696 37.896ZM155.262 37.128C153.598 37.128 152.198 36.832 151.062 36.24C149.926 35.664 149.014 34.896 148.326 33.936C147.654 32.976 147.166 31.928 146.862 30.792C146.558 29.656 146.406 28.528 146.406 27.408C146.406 26.08 146.622 24.768 147.054 23.472C147.486 22.176 148.134 21 148.998 19.944C149.878 18.888 150.966 18.04 152.262 17.4C153.574 16.76 155.102 16.44 156.846 16.44C158.318 16.44 159.606 16.656 160.71 17.088C161.814 17.504 162.758 18.016 163.542 18.624C164.342 19.216 164.982 19.776 165.462 20.304L162.462 23.544C162.014 23.016 161.534 22.52 161.022 22.056C160.526 21.592 159.934 21.216 159.246 20.928C158.558 20.64 157.71 20.496 156.702 20.496C155.614 20.496 154.678 20.696 153.894 21.096C153.11 21.48 152.47 22 151.974 22.656C151.478 23.312 151.11 24.048 150.87 24.864C150.646 25.68 150.534 26.52 150.534 27.384C150.534 28.408 150.702 29.352 151.038 30.216C151.39 31.08 151.91 31.776 152.598 32.304C153.302 32.832 154.174 33.096 155.214 33.096C156.494 33.096 157.55 32.8 158.382 32.208C159.214 31.616 159.79 30.768 160.11 29.664C159.422 29.712 158.758 29.776 158.118 29.856C157.494 29.92 156.934 29.992 156.438 30.072L156.03 26.184C156.974 25.976 158.062 25.824 159.294 25.728C160.542 25.616 161.734 25.56 162.87 25.56C164.438 25.56 165.614 25.656 166.398 25.848L166.302 29.784C165.966 29.688 165.43 29.616 164.694 29.568C164.694 29.92 164.694 30.288 164.694 30.672C164.71 31.056 164.718 31.448 164.718 31.848C164.718 32.952 164.702 34.04 164.67 35.112C164.638 36.184 164.606 37.04 164.574 37.68L160.47 37.584C160.486 37.376 160.51 37.056 160.542 36.624C160.59 36.192 160.638 35.704 160.686 35.16C160.142 35.736 159.43 36.208 158.55 36.576C157.686 36.944 156.59 37.128 155.262 37.128ZM168.509 37.872C168.573 36.544 168.621 35.216 168.653 33.888C168.685 32.56 168.701 31.248 168.701 29.952C168.685 28.768 168.661 27.6 168.629 26.448C168.613 25.28 168.573 24.152 168.509 23.064L172.541 22.944C172.557 23.536 172.581 24.144 172.613 24.768C173.125 24.128 173.717 23.616 174.389 23.232C175.077 22.832 175.861 22.632 176.741 22.632C177.077 22.632 177.509 22.68 178.037 22.776C178.565 22.872 179.101 23.056 179.645 23.328L179.189 27.384C178.789 27.144 178.357 26.976 177.893 26.88C177.445 26.768 177.069 26.712 176.765 26.712C175.741 26.712 174.869 27.176 174.149 28.104C173.445 29.016 172.965 30.288 172.709 31.92C172.709 33.04 172.693 34.112 172.661 35.136C172.645 36.144 172.605 37.056 172.541 37.872H168.509ZM187.757 37.968C186.477 37.968 185.357 37.76 184.397 37.344C183.453 36.928 182.669 36.36 182.045 35.64C181.421 34.904 180.957 34.064 180.653 33.12C180.349 32.176 180.197 31.184 180.197 30.144C180.197 29.088 180.381 28.112 180.749 27.216C181.133 26.304 181.653 25.512 182.309 24.84C182.981 24.168 183.765 23.648 184.661 23.28C185.557 22.896 186.533 22.704 187.589 22.704C188.693 22.704 189.717 22.896 190.661 23.28C191.605 23.664 192.429 24.2 193.133 24.888C193.837 25.576 194.381 26.384 194.765 27.312C195.165 28.24 195.365 29.248 195.365 30.336C195.365 32.752 194.701 34.632 193.373 35.976C192.045 37.304 190.173 37.968 187.757 37.968ZM187.733 34.08C188.901 34.08 189.789 33.752 190.397 33.096C191.021 32.44 191.333 31.496 191.333 30.264C191.333 29.16 190.997 28.272 190.325 27.6C189.653 26.928 188.773 26.592 187.685 26.592C187.029 26.592 186.429 26.768 185.885 27.12C185.341 27.456 184.901 27.912 184.565 28.488C184.245 29.048 184.085 29.672 184.085 30.36C184.085 30.968 184.205 31.56 184.445 32.136C184.701 32.712 185.101 33.184 185.645 33.552C186.189 33.904 186.885 34.08 187.733 34.08ZM202.574 37.968C201.246 37.968 200.118 36.936 199.19 34.872C198.87 34.136 198.59 33.328 198.35 32.448C198.11 31.568 197.902 30.672 197.726 29.76C197.566 28.848 197.43 27.976 197.318 27.144C197.222 26.296 197.142 25.552 197.078 24.912C197.03 24.256 196.99 23.76 196.958 23.424L200.894 22.512C201.086 26.144 201.374 28.904 201.758 30.792C202.158 32.68 202.462 33.624 202.67 33.624C202.782 33.624 202.918 33.4 203.078 32.952C203.254 32.504 203.446 31.912 203.654 31.176C203.862 30.424 204.062 29.6 204.254 28.704C204.446 27.808 204.614 26.904 204.758 25.992C204.566 24.824 204.438 23.896 204.374 23.208L208.43 23.064V23.352C208.43 24.008 208.478 24.776 208.574 25.656C208.67 26.536 208.79 27.448 208.934 28.392C209.078 29.32 209.23 30.184 209.39 30.984C209.566 31.784 209.734 32.432 209.894 32.928C210.054 33.424 210.19 33.672 210.302 33.672C210.398 33.672 210.534 33.456 210.71 33.024C210.886 32.592 211.078 32 211.286 31.248C211.51 30.496 211.734 29.64 211.958 28.68C212.182 27.704 212.398 26.68 212.606 25.608C212.814 24.52 212.982 23.44 213.11 22.368L217.07 23.208C216.798 24.728 216.47 26.24 216.086 27.744C215.718 29.232 215.326 30.616 214.91 31.896C214.494 33.16 214.086 34.224 213.686 35.088C212.79 36.992 211.678 37.944 210.35 37.944C209.918 37.944 209.422 37.808 208.862 37.536C208.318 37.28 207.814 36.736 207.35 35.904C207.19 35.6 207.03 35.232 206.87 34.8C206.71 34.368 206.558 33.888 206.414 33.36C206.222 33.952 206.03 34.48 205.838 34.944C204.99 36.96 203.902 37.968 202.574 37.968Z" fill="#70D770"/>
</svg>
