<svg width="307" height="86" viewBox="0 0 307 86" fill="none" xmlns="http://www.w3.org/2000/svg">
<path d="M102.936 75.06C102.72 74.644 102.42 74.332 102.036 74.124C101.652 73.908 101.208 73.8 100.704 73.8C100.152 73.8 99.66 73.924 99.228 74.172C98.796 74.42 98.456 74.772 98.208 75.228C97.968 75.684 97.848 76.212 97.848 76.812C97.848 77.412 97.968 77.944 98.208 78.408C98.456 78.864 98.796 79.216 99.228 79.464C99.66 79.712 100.152 79.836 100.704 79.836C101.448 79.836 102.052 79.628 102.516 79.212C102.98 78.796 103.264 78.232 103.368 77.52H100.236V76.428H104.832V77.496C104.744 78.144 104.512 78.74 104.136 79.284C103.768 79.828 103.284 80.264 102.684 80.592C102.092 80.912 101.432 81.072 100.704 81.072C99.92 81.072 99.204 80.892 98.556 80.532C97.908 80.164 97.392 79.656 97.008 79.008C96.632 78.36 96.444 77.628 96.444 76.812C96.444 75.996 96.632 75.264 97.008 74.616C97.392 73.968 97.908 73.464 98.556 73.104C99.212 72.736 99.928 72.552 100.704 72.552C101.592 72.552 102.38 72.772 103.068 73.212C103.764 73.644 104.268 74.26 104.58 75.06H102.936ZM107.549 75.348C107.749 75.012 108.013 74.752 108.341 74.568C108.677 74.376 109.073 74.28 109.529 74.28V75.696H109.181C108.645 75.696 108.237 75.832 107.957 76.104C107.685 76.376 107.549 76.848 107.549 77.52V81H106.181V74.388H107.549V75.348ZM113.655 81.108C113.031 81.108 112.467 80.968 111.963 80.688C111.459 80.4 111.063 80 110.775 79.488C110.487 78.968 110.343 78.368 110.343 77.688C110.343 77.016 110.491 76.42 110.787 75.9C111.083 75.38 111.487 74.98 111.999 74.7C112.511 74.42 113.083 74.28 113.715 74.28C114.347 74.28 114.919 74.42 115.431 74.7C115.943 74.98 116.347 75.38 116.643 75.9C116.939 76.42 117.087 77.016 117.087 77.688C117.087 78.36 116.935 78.956 116.631 79.476C116.327 79.996 115.911 80.4 115.383 80.688C114.863 80.968 114.287 81.108 113.655 81.108ZM113.655 79.92C114.007 79.92 114.335 79.836 114.639 79.668C114.951 79.5 115.203 79.248 115.395 78.912C115.587 78.576 115.683 78.168 115.683 77.688C115.683 77.208 115.591 76.804 115.407 76.476C115.223 76.14 114.979 75.888 114.675 75.72C114.371 75.552 114.043 75.468 113.691 75.468C113.339 75.468 113.011 75.552 112.707 75.72C112.411 75.888 112.175 76.14 111.999 76.476C111.823 76.804 111.735 77.208 111.735 77.688C111.735 78.4 111.915 78.952 112.275 79.344C112.643 79.728 113.103 79.92 113.655 79.92ZM127.319 74.388L125.267 81H123.827L122.495 76.116L121.163 81H119.723L117.659 74.388H119.051L120.431 79.704L121.835 74.388H123.263L124.607 79.68L125.975 74.388H127.319ZM140.339 74.388L138.287 81H136.847L135.515 76.116L134.183 81H132.743L130.679 74.388H132.071L133.451 79.704L134.855 74.388H136.283L137.627 79.68L138.995 74.388H140.339ZM142.057 73.512C141.809 73.512 141.601 73.428 141.433 73.26C141.265 73.092 141.181 72.884 141.181 72.636C141.181 72.388 141.265 72.18 141.433 72.012C141.601 71.844 141.809 71.76 142.057 71.76C142.297 71.76 142.501 71.844 142.669 72.012C142.837 72.18 142.921 72.388 142.921 72.636C142.921 72.884 142.837 73.092 142.669 73.26C142.501 73.428 142.297 73.512 142.057 73.512ZM142.729 74.388V81H141.361V74.388H142.729ZM146.121 75.504V79.164C146.121 79.412 146.177 79.592 146.289 79.704C146.409 79.808 146.609 79.86 146.889 79.86H147.729V81H146.649C146.033 81 145.561 80.856 145.233 80.568C144.905 80.28 144.741 79.812 144.741 79.164V75.504H143.961V74.388H144.741V72.744H146.121V74.388H147.729V75.504H146.121ZM152.41 74.28C152.914 74.28 153.362 74.388 153.754 74.604C154.154 74.82 154.466 75.14 154.69 75.564C154.922 75.988 155.038 76.5 155.038 77.1V81H153.682V77.304C153.682 76.712 153.534 76.26 153.238 75.948C152.942 75.628 152.538 75.468 152.026 75.468C151.514 75.468 151.106 75.628 150.802 75.948C150.506 76.26 150.358 76.712 150.358 77.304V81H148.99V72.12H150.358V75.156C150.59 74.876 150.882 74.66 151.234 74.508C151.594 74.356 151.986 74.28 152.41 74.28ZM165.852 74.388L161.796 84.108H160.38L161.724 80.892L159.12 74.388H160.644L162.504 79.428L164.436 74.388H165.852ZM169.752 81.108C169.128 81.108 168.564 80.968 168.06 80.688C167.556 80.4 167.16 80 166.872 79.488C166.584 78.968 166.44 78.368 166.44 77.688C166.44 77.016 166.588 76.42 166.884 75.9C167.18 75.38 167.584 74.98 168.096 74.7C168.608 74.42 169.18 74.28 169.812 74.28C170.444 74.28 171.016 74.42 171.528 74.7C172.04 74.98 172.444 75.38 172.74 75.9C173.036 76.42 173.184 77.016 173.184 77.688C173.184 78.36 173.032 78.956 172.728 79.476C172.424 79.996 172.008 80.4 171.48 80.688C170.96 80.968 170.384 81.108 169.752 81.108ZM169.752 79.92C170.104 79.92 170.432 79.836 170.736 79.668C171.048 79.5 171.3 79.248 171.492 78.912C171.684 78.576 171.78 78.168 171.78 77.688C171.78 77.208 171.688 76.804 171.504 76.476C171.32 76.14 171.076 75.888 170.772 75.72C170.468 75.552 170.14 75.468 169.788 75.468C169.436 75.468 169.108 75.552 168.804 75.72C168.508 75.888 168.272 76.14 168.096 76.476C167.92 76.804 167.832 77.208 167.832 77.688C167.832 78.4 168.012 78.952 168.372 79.344C168.74 79.728 169.2 79.92 169.752 79.92ZM180.525 74.388V81H179.157V80.22C178.941 80.492 178.657 80.708 178.305 80.868C177.961 81.02 177.593 81.096 177.201 81.096C176.681 81.096 176.213 80.988 175.797 80.772C175.389 80.556 175.065 80.236 174.825 79.812C174.593 79.388 174.477 78.876 174.477 78.276V74.388H175.833V78.072C175.833 78.664 175.981 79.12 176.277 79.44C176.573 79.752 176.977 79.908 177.489 79.908C178.001 79.908 178.405 79.752 178.701 79.44C179.005 79.12 179.157 78.664 179.157 78.072V74.388H180.525ZM183.698 75.348C183.898 75.012 184.162 74.752 184.49 74.568C184.826 74.376 185.222 74.28 185.678 74.28V75.696H185.33C184.794 75.696 184.386 75.832 184.106 76.104C183.834 76.376 183.698 76.848 183.698 77.52V81H182.33V74.388H183.698V75.348ZM191.42 75.36C191.652 75.056 191.968 74.8 192.368 74.592C192.768 74.384 193.22 74.28 193.724 74.28C194.3 74.28 194.824 74.424 195.296 74.712C195.776 74.992 196.152 75.388 196.424 75.9C196.696 76.412 196.832 77 196.832 77.664C196.832 78.328 196.696 78.924 196.424 79.452C196.152 79.972 195.776 80.38 195.296 80.676C194.824 80.964 194.3 81.108 193.724 81.108C193.22 81.108 192.772 81.008 192.38 80.808C191.988 80.6 191.668 80.344 191.42 80.04V84.144H190.052V74.388H191.42V75.36ZM195.44 77.664C195.44 77.208 195.344 76.816 195.152 76.488C194.968 76.152 194.72 75.9 194.408 75.732C194.104 75.556 193.776 75.468 193.424 75.468C193.08 75.468 192.752 75.556 192.44 75.732C192.136 75.908 191.888 76.164 191.696 76.5C191.512 76.836 191.42 77.232 191.42 77.688C191.42 78.144 191.512 78.544 191.696 78.888C191.888 79.224 192.136 79.48 192.44 79.656C192.752 79.832 193.08 79.92 193.424 79.92C193.776 79.92 194.104 79.832 194.408 79.656C194.72 79.472 194.968 79.208 195.152 78.864C195.344 78.52 195.44 78.12 195.44 77.664ZM199.553 72.12V81H198.185V72.12H199.553ZM200.893 77.664C200.893 77 201.029 76.412 201.301 75.9C201.581 75.388 201.957 74.992 202.429 74.712C202.909 74.424 203.437 74.28 204.013 74.28C204.533 74.28 204.985 74.384 205.369 74.592C205.761 74.792 206.073 75.044 206.305 75.348V74.388H207.685V81H206.305V80.016C206.073 80.328 205.757 80.588 205.357 80.796C204.957 81.004 204.501 81.108 203.989 81.108C203.421 81.108 202.901 80.964 202.429 80.676C201.957 80.38 201.581 79.972 201.301 79.452C201.029 78.924 200.893 78.328 200.893 77.664ZM206.305 77.688C206.305 77.232 206.209 76.836 206.017 76.5C205.833 76.164 205.589 75.908 205.285 75.732C204.981 75.556 204.653 75.468 204.301 75.468C203.949 75.468 203.621 75.556 203.317 75.732C203.013 75.9 202.765 76.152 202.573 76.488C202.389 76.816 202.297 77.208 202.297 77.664C202.297 78.12 202.389 78.52 202.573 78.864C202.765 79.208 203.013 79.472 203.317 79.656C203.629 79.832 203.957 79.92 204.301 79.92C204.653 79.92 204.981 79.832 205.285 79.656C205.589 79.48 205.833 79.224 206.017 78.888C206.209 78.544 206.305 78.144 206.305 77.688ZM212.818 74.28C213.338 74.28 213.802 74.388 214.21 74.604C214.626 74.82 214.95 75.14 215.182 75.564C215.414 75.988 215.53 76.5 215.53 77.1V81H214.174V77.304C214.174 76.712 214.026 76.26 213.73 75.948C213.434 75.628 213.03 75.468 212.518 75.468C212.006 75.468 211.598 75.628 211.294 75.948C210.998 76.26 210.85 76.712 210.85 77.304V81H209.482V74.388H210.85V75.144C211.074 74.872 211.358 74.66 211.702 74.508C212.054 74.356 212.426 74.28 212.818 74.28ZM218.871 75.504V79.164C218.871 79.412 218.927 79.592 219.039 79.704C219.159 79.808 219.359 79.86 219.639 79.86H220.479V81H219.399C218.783 81 218.311 80.856 217.983 80.568C217.655 80.28 217.491 79.812 217.491 79.164V75.504H216.711V74.388H217.491V72.744H218.871V74.388H220.479V75.504H218.871ZM224.14 81.108C223.62 81.108 223.152 81.016 222.736 80.832C222.328 80.64 222.004 80.384 221.764 80.064C221.524 79.736 221.396 79.372 221.38 78.972H222.796C222.82 79.252 222.952 79.488 223.192 79.68C223.44 79.864 223.748 79.956 224.116 79.956C224.5 79.956 224.796 79.884 225.004 79.74C225.22 79.588 225.328 79.396 225.328 79.164C225.328 78.916 225.208 78.732 224.968 78.612C224.736 78.492 224.364 78.36 223.852 78.216C223.356 78.08 222.952 77.948 222.64 77.82C222.328 77.692 222.056 77.496 221.824 77.232C221.6 76.968 221.488 76.62 221.488 76.188C221.488 75.836 221.592 75.516 221.8 75.228C222.008 74.932 222.304 74.7 222.688 74.532C223.08 74.364 223.528 74.28 224.032 74.28C224.784 74.28 225.388 74.472 225.844 74.856C226.308 75.232 226.556 75.748 226.588 76.404H225.22C225.196 76.108 225.076 75.872 224.86 75.696C224.644 75.52 224.352 75.432 223.984 75.432C223.624 75.432 223.348 75.5 223.156 75.636C222.964 75.772 222.868 75.952 222.868 76.176C222.868 76.352 222.932 76.5 223.06 76.62C223.188 76.74 223.344 76.836 223.528 76.908C223.712 76.972 223.984 77.056 224.344 77.16C224.824 77.288 225.216 77.42 225.52 77.556C225.832 77.684 226.1 77.876 226.324 78.132C226.548 78.388 226.664 78.728 226.672 79.152C226.672 79.528 226.568 79.864 226.36 80.16C226.152 80.456 225.856 80.688 225.472 80.856C225.096 81.024 224.652 81.108 224.14 81.108ZM229.65 79.356L228.198 82.668H227.31L228.162 79.356H229.65ZM240.023 77.532C240.023 77.78 240.007 78.004 239.975 78.204H234.923C234.963 78.732 235.159 79.156 235.511 79.476C235.863 79.796 236.295 79.956 236.807 79.956C237.543 79.956 238.063 79.648 238.367 79.032H239.842C239.643 79.64 239.279 80.14 238.751 80.532C238.231 80.916 237.583 81.108 236.807 81.108C236.175 81.108 235.607 80.968 235.103 80.688C234.607 80.4 234.215 80 233.927 79.488C233.647 78.968 233.507 78.368 233.507 77.688C233.507 77.008 233.643 76.412 233.915 75.9C234.195 75.38 234.583 74.98 235.079 74.7C235.583 74.42 236.159 74.28 236.807 74.28C237.431 74.28 237.987 74.416 238.475 74.688C238.963 74.96 239.343 75.344 239.615 75.84C239.887 76.328 240.023 76.892 240.023 77.532ZM238.595 77.1C238.587 76.596 238.407 76.192 238.055 75.888C237.703 75.584 237.267 75.432 236.747 75.432C236.275 75.432 235.871 75.584 235.535 75.888C235.199 76.184 234.999 76.588 234.935 77.1H238.595ZM243.925 79.776L245.797 74.388H247.249L244.729 81H243.097L240.589 74.388H242.053L243.925 79.776ZM254.343 77.532C254.343 77.78 254.327 78.004 254.295 78.204H249.243C249.283 78.732 249.479 79.156 249.831 79.476C250.183 79.796 250.615 79.956 251.127 79.956C251.863 79.956 252.383 79.648 252.687 79.032H254.163C253.963 79.64 253.599 80.14 253.071 80.532C252.551 80.916 251.903 81.108 251.127 81.108C250.495 81.108 249.927 80.968 249.423 80.688C248.927 80.4 248.535 80 248.247 79.488C247.967 78.968 247.827 78.368 247.827 77.688C247.827 77.008 247.963 76.412 248.235 75.9C248.515 75.38 248.903 74.98 249.399 74.7C249.903 74.42 250.479 74.28 251.127 74.28C251.751 74.28 252.307 74.416 252.795 74.688C253.283 74.96 253.663 75.344 253.935 75.84C254.207 76.328 254.343 76.892 254.343 77.532ZM252.915 77.1C252.907 76.596 252.727 76.192 252.375 75.888C252.023 75.584 251.587 75.432 251.067 75.432C250.595 75.432 250.191 75.584 249.855 75.888C249.519 76.184 249.319 76.588 249.255 77.1H252.915ZM257.057 75.348C257.257 75.012 257.521 74.752 257.849 74.568C258.185 74.376 258.581 74.28 259.037 74.28V75.696H258.689C258.153 75.696 257.745 75.832 257.465 76.104C257.193 76.376 257.057 76.848 257.057 77.52V81H255.689V74.388H257.057V75.348ZM266.247 74.388L262.191 84.108H260.775L262.119 80.892L259.515 74.388H261.039L262.899 79.428L264.831 74.388H266.247ZM269.94 77.664C269.94 77 270.076 76.412 270.348 75.9C270.628 75.388 271.004 74.992 271.476 74.712C271.956 74.424 272.488 74.28 273.072 74.28C273.504 74.28 273.928 74.376 274.344 74.568C274.768 74.752 275.104 75 275.352 75.312V72.12H276.732V81H275.352V80.004C275.128 80.324 274.816 80.588 274.416 80.796C274.024 81.004 273.572 81.108 273.06 81.108C272.484 81.108 271.956 80.964 271.476 80.676C271.004 80.38 270.628 79.972 270.348 79.452C270.076 78.924 269.94 78.328 269.94 77.664ZM275.352 77.688C275.352 77.232 275.256 76.836 275.064 76.5C274.88 76.164 274.636 75.908 274.332 75.732C274.028 75.556 273.7 75.468 273.348 75.468C272.996 75.468 272.668 75.556 272.364 75.732C272.06 75.9 271.812 76.152 271.62 76.488C271.436 76.816 271.344 77.208 271.344 77.664C271.344 78.12 271.436 78.52 271.62 78.864C271.812 79.208 272.06 79.472 272.364 79.656C272.676 79.832 273.004 79.92 273.348 79.92C273.7 79.92 274.028 79.832 274.332 79.656C274.636 79.48 274.88 79.224 275.064 78.888C275.256 78.544 275.352 78.144 275.352 77.688ZM278.073 77.664C278.073 77 278.209 76.412 278.481 75.9C278.761 75.388 279.137 74.992 279.609 74.712C280.089 74.424 280.617 74.28 281.193 74.28C281.713 74.28 282.165 74.384 282.549 74.592C282.941 74.792 283.253 75.044 283.485 75.348V74.388H284.865V81H283.485V80.016C283.253 80.328 282.937 80.588 282.537 80.796C282.137 81.004 281.681 81.108 281.169 81.108C280.601 81.108 280.081 80.964 279.609 80.676C279.137 80.38 278.761 79.972 278.481 79.452C278.209 78.924 278.073 78.328 278.073 77.664ZM283.485 77.688C283.485 77.232 283.389 76.836 283.197 76.5C283.013 76.164 282.769 75.908 282.465 75.732C282.161 75.556 281.833 75.468 281.481 75.468C281.129 75.468 280.801 75.556 280.497 75.732C280.193 75.9 279.945 76.152 279.753 76.488C279.569 76.816 279.477 77.208 279.477 77.664C279.477 78.12 279.569 78.52 279.753 78.864C279.945 79.208 280.193 79.472 280.497 79.656C280.809 79.832 281.137 79.92 281.481 79.92C281.833 79.92 282.161 79.832 282.465 79.656C282.769 79.48 283.013 79.224 283.197 78.888C283.389 78.544 283.485 78.144 283.485 77.688ZM292.614 74.388L288.558 84.108H287.142L288.486 80.892L285.882 74.388H287.406L289.266 79.428L291.198 74.388H292.614Z" fill="#70D770"/>
<path d="M33.5571 56.0216C33.5571 54.6789 33.3925 53.3413 33.0668 52.0388L32.8568 51.1987C31.4069 45.3991 26.6704 41.0018 20.7792 39.9861C19.786 39.8148 18.8125 39.5446 17.8733 39.1793L14.9407 38.0389C13.2133 37.3671 11.5587 36.5212 10.0026 35.5143L8.45954 34.5158C6.69181 33.372 5.14749 31.9154 3.90237 30.2175C2.3497 28.1002 1.29879 25.6576 0.829114 23.0744L0 18.5143L9.64286 18.1286L15.2213 18.6137C17.4039 18.8034 19.5449 19.3244 21.5707 20.1585L21.9561 20.3172C24.0173 21.1659 25.915 22.3669 27.5643 23.8663C28.7266 24.9229 29.7549 26.118 30.6262 27.4249L30.6819 27.5085C32.3212 29.9676 33.396 32.759 33.8292 35.6825L34.7143 41.6571L35.4857 43.5857L35.8714 38.1857V36.0913C35.8714 31.6098 36.6775 27.1649 38.251 22.9687C38.9777 21.031 39.864 19.157 40.9009 17.366L41.8763 15.6812C43.0111 13.7212 44.3967 11.9176 45.9982 10.3161L46.597 9.71731C48.1791 8.13517 50.006 6.81844 52.0073 5.8178C53.0766 5.28312 54.1901 4.84155 55.3352 4.498L61.3286 2.7L70.9714 1.15714L78.3 0.578571L85.6286 0V2.33443C85.6286 4.37244 85.4133 6.40475 84.9862 8.39753C84.6437 9.9963 84.1662 11.5632 83.5589 13.0813L82.1571 16.5857L80.4554 19.8002C79.2807 22.0191 77.8205 24.0746 76.1121 25.9144C74.4913 27.66 72.6599 29.1974 70.66 30.4914L69.6415 31.1505C67.9593 32.239 66.1946 33.1945 64.3636 34.0082L60.1714 35.8714L52.65 38.3786L46.5707 40.405C45.6135 40.7241 44.7032 41.1693 43.8638 41.7289C41.6882 43.1793 40.08 45.3363 39.3111 47.8354L38.3303 51.0229C37.723 52.9965 37.4143 55.0499 37.4143 57.1149V81H33.5571V56.0216Z" fill="#70D770"/>
<path d="M35.1 51.6858L33.1714 44.3571L31.8458 41.043C31.1884 39.3997 30.3622 37.8291 29.3805 36.3564C28.3112 34.7525 27.0639 33.2746 25.6624 31.951L24.5649 30.9144C22.0848 28.5721 19.3071 26.5665 16.3035 24.9491L15.8142 24.6857L15.87 24.7028C19.1473 25.7112 22.2092 27.3185 24.9005 29.4432C27.0596 31.1478 28.9531 33.164 30.5189 35.4257L31.6285 37.0285L35.1 43.2001L37.0284 38.1842L39.128 33.7952C40.5525 30.8172 42.3056 28.0078 44.3545 25.4193C47.1681 21.8647 50.5108 18.7631 54.2658 16.2229L61.7141 11.1842L56.8169 15.3395C51.6197 19.7493 47.0396 24.8385 43.2 30.47L40.8856 35.0984L38.1856 41.6556L37.0284 45.5144L35.1 51.6858Z" fill="white"/>
<path d="M106.86 50.19C104.88 50.19 103.31 50.02 102.15 49.68C100.99 49.34 100.13 48.86 99.57 48.24C99.01 47.64 98.64 46.93 98.46 46.11C98.3 45.27 98.22 44.37 98.22 43.41C98.22 41.81 98.26 39.98 98.34 37.92C98.44 35.86 98.56 33.65 98.7 31.29C98.86 28.91 99.03 26.45 99.21 23.91L104.67 24.45C104.47 25.99 104.29 27.57 104.13 29.19C103.99 30.79 103.87 32.35 103.77 33.87C103.67 35.39 103.59 36.77 103.53 38.01C103.47 39.25 103.42 40.29 103.38 41.13C103.36 41.95 103.35 42.48 103.35 42.72C103.35 43.42 103.43 43.95 103.59 44.31C103.75 44.65 104.07 44.88 104.55 45C105.03 45.12 105.73 45.18 106.65 45.18C107.81 45.18 109.12 45.11 110.58 44.97C112.04 44.81 113.52 44.58 115.02 44.28C116.52 43.98 117.89 43.62 119.13 43.2L120.3 48.36C118.94 48.7 117.47 49.01 115.89 49.29C114.33 49.57 112.77 49.79 111.21 49.95C109.65 50.11 108.2 50.19 106.86 50.19ZM131.402 50.4C129.482 50.4 127.792 50.02 126.332 49.26C124.892 48.52 123.762 47.48 122.942 46.14C122.142 44.8 121.742 43.25 121.742 41.49C121.742 40.43 121.922 39.32 122.282 38.16C122.642 36.98 123.222 35.88 124.022 34.86C124.822 33.84 125.872 33.01 127.172 32.37C128.492 31.73 130.092 31.41 131.972 31.41C133.332 31.41 134.472 31.56 135.392 31.86C136.332 32.16 137.092 32.55 137.672 33.03C138.272 33.51 138.722 34.02 139.022 34.56C139.342 35.1 139.552 35.62 139.652 36.12C139.772 36.6 139.832 37 139.832 37.32C139.832 39.26 139.012 40.76 137.372 41.82C135.752 42.86 133.452 43.38 130.472 43.38C129.792 43.38 129.142 43.35 128.522 43.29C127.922 43.23 127.362 43.16 126.842 43.08C127.222 44.08 127.852 44.82 128.732 45.3C129.612 45.76 130.522 45.99 131.462 45.99C132.822 45.99 134.022 45.75 135.062 45.27C136.102 44.77 137.082 44.01 138.002 42.99L140.672 46.83C140.032 47.35 139.312 47.89 138.512 48.45C137.732 49.01 136.772 49.47 135.632 49.83C134.492 50.21 133.082 50.4 131.402 50.4ZM132.062 35.91C130.882 35.91 129.842 36.21 128.942 36.81C128.042 37.41 127.382 38.2 126.962 39.18C127.462 39.26 127.952 39.33 128.432 39.39C128.932 39.43 129.422 39.45 129.902 39.45C130.342 39.45 130.842 39.41 131.402 39.33C131.982 39.25 132.542 39.13 133.082 38.97C133.642 38.81 134.102 38.61 134.462 38.37C134.822 38.11 135.002 37.81 135.002 37.47C135.002 37.31 134.922 37.11 134.762 36.87C134.602 36.63 134.312 36.41 133.892 36.21C133.472 36.01 132.862 35.91 132.062 35.91ZM151.997 50.37C150.797 50.37 149.847 50.11 149.147 49.59C148.447 49.09 147.937 48.39 147.617 47.49C147.297 46.59 147.087 45.56 146.987 44.4C146.907 43.24 146.867 42.02 146.867 40.74C146.867 39.42 146.917 38.05 147.017 36.63C145.677 36.81 144.387 37.04 143.147 37.32L142.217 32.61C143.877 32.17 145.647 31.85 147.527 31.65C147.667 30.63 147.817 29.56 147.977 28.44C148.137 27.3 148.317 26.1 148.517 24.84L153.677 25.29C153.437 26.33 153.227 27.37 153.047 28.41C152.867 29.43 152.707 30.42 152.567 31.38C153.687 31.38 154.737 31.41 155.717 31.47C156.717 31.51 157.637 31.59 158.477 31.71L157.877 36.42C157.177 36.34 156.447 36.29 155.687 36.27C154.947 36.23 154.197 36.21 153.437 36.21C152.977 36.21 152.517 36.22 152.057 36.24C151.937 37.7 151.857 38.95 151.817 39.99C151.797 41.03 151.787 41.77 151.787 42.21C151.787 43.31 151.847 44.1 151.967 44.58C152.107 45.06 152.327 45.3 152.627 45.3C152.967 45.3 153.347 45.19 153.767 44.97C154.187 44.73 154.597 44.41 154.997 44.01C155.417 43.61 155.767 43.18 156.047 42.72L158.357 47.55C156.377 49.43 154.257 50.37 151.997 50.37ZM167.37 28.62C167.37 28.44 167.36 28.26 167.34 28.08C167.34 27.88 167.34 27.66 167.34 27.42C167.34 26.78 167.36 26.1 167.4 25.38C167.44 24.66 167.48 24.05 167.52 23.55L172.86 23.64C172.8 24.32 172.73 25.09 172.65 25.95C172.59 26.81 172.55 27.7 172.53 28.62H167.37ZM167.25 50.1C167.19 48.86 167.15 47.54 167.13 46.14C167.11 44.72 167.1 43.3 167.1 41.88C167.1 40.02 167.12 38.21 167.16 36.45C167.2 34.69 167.25 33.09 167.31 31.65L172.47 31.62C172.39 32.54 172.34 33.68 172.32 35.04C172.3 36.38 172.29 37.79 172.29 39.27C172.29 40.73 172.3 42.17 172.32 43.59C172.34 45.01 172.36 46.3 172.38 47.46C172.42 48.6 172.45 49.48 172.47 50.1H167.25ZM184.37 50.37C183.17 50.37 182.22 50.11 181.52 49.59C180.82 49.09 180.31 48.39 179.99 47.49C179.67 46.59 179.46 45.56 179.36 44.4C179.28 43.24 179.24 42.02 179.24 40.74C179.24 39.42 179.29 38.05 179.39 36.63C178.05 36.81 176.76 37.04 175.52 37.32L174.59 32.61C176.25 32.17 178.02 31.85 179.9 31.65C180.04 30.63 180.19 29.56 180.35 28.44C180.51 27.3 180.69 26.1 180.89 24.84L186.05 25.29C185.81 26.33 185.6 27.37 185.42 28.41C185.24 29.43 185.08 30.42 184.94 31.38C186.06 31.38 187.11 31.41 188.09 31.47C189.09 31.51 190.01 31.59 190.85 31.71L190.25 36.42C189.55 36.34 188.82 36.29 188.06 36.27C187.32 36.23 186.57 36.21 185.81 36.21C185.35 36.21 184.89 36.22 184.43 36.24C184.31 37.7 184.23 38.95 184.19 39.99C184.17 41.03 184.16 41.77 184.16 42.21C184.16 43.31 184.22 44.1 184.34 44.58C184.48 45.06 184.7 45.3 185 45.3C185.34 45.3 185.72 45.19 186.14 44.97C186.56 44.73 186.97 44.41 187.37 44.01C187.79 43.61 188.14 43.18 188.42 42.72L190.73 47.55C188.75 49.43 186.63 50.37 184.37 50.37ZM210.723 49.41C208.643 49.41 206.893 49.04 205.473 48.3C204.053 47.58 202.913 46.62 202.053 45.42C201.213 44.22 200.603 42.91 200.223 41.49C199.843 40.07 199.653 38.66 199.653 37.26C199.653 35.6 199.923 33.96 200.463 32.34C201.003 30.72 201.813 29.25 202.893 27.93C203.993 26.61 205.353 25.55 206.973 24.75C208.613 23.95 210.523 23.55 212.703 23.55C214.543 23.55 216.153 23.82 217.533 24.36C218.913 24.88 220.093 25.52 221.073 26.28C222.073 27.02 222.873 27.72 223.473 28.38L219.723 32.43C219.163 31.77 218.563 31.15 217.923 30.57C217.303 29.99 216.563 29.52 215.703 29.16C214.843 28.8 213.783 28.62 212.523 28.62C211.163 28.62 209.993 28.87 209.013 29.37C208.033 29.85 207.233 30.5 206.613 31.32C205.993 32.14 205.533 33.06 205.233 34.08C204.953 35.1 204.813 36.15 204.813 37.23C204.813 38.51 205.023 39.69 205.443 40.77C205.883 41.85 206.533 42.72 207.393 43.38C208.273 44.04 209.363 44.37 210.663 44.37C212.263 44.37 213.583 44 214.623 43.26C215.663 42.52 216.383 41.46 216.783 40.08C215.923 40.14 215.093 40.22 214.293 40.32C213.513 40.4 212.813 40.49 212.193 40.59L211.683 35.73C212.863 35.47 214.223 35.28 215.763 35.16C217.323 35.02 218.813 34.95 220.233 34.95C222.193 34.95 223.663 35.07 224.643 35.31L224.523 40.23C224.103 40.11 223.433 40.02 222.513 39.96C222.513 40.4 222.513 40.86 222.513 41.34C222.533 41.82 222.543 42.31 222.543 42.81C222.543 44.19 222.523 45.55 222.483 46.89C222.443 48.23 222.403 49.3 222.363 50.1L217.233 49.98C217.253 49.72 217.283 49.32 217.323 48.78C217.383 48.24 217.443 47.63 217.503 46.95C216.823 47.67 215.933 48.26 214.833 48.72C213.753 49.18 212.383 49.41 210.723 49.41ZM227.281 50.34C227.361 48.68 227.421 47.02 227.461 45.36C227.501 43.7 227.521 42.06 227.521 40.44C227.501 38.96 227.471 37.5 227.431 36.06C227.411 34.6 227.361 33.19 227.281 31.83L232.321 31.68C232.341 32.42 232.371 33.18 232.411 33.96C233.051 33.16 233.791 32.52 234.631 32.04C235.491 31.54 236.471 31.29 237.571 31.29C237.991 31.29 238.531 31.35 239.191 31.47C239.851 31.59 240.521 31.82 241.201 32.16L240.631 37.23C240.131 36.93 239.591 36.72 239.011 36.6C238.451 36.46 237.981 36.39 237.601 36.39C236.321 36.39 235.231 36.97 234.331 38.13C233.451 39.27 232.851 40.86 232.531 42.9C232.531 44.3 232.511 45.64 232.471 46.92C232.451 48.18 232.401 49.32 232.321 50.34H227.281ZM251.34 50.46C249.74 50.46 248.34 50.2 247.14 49.68C245.96 49.16 244.98 48.45 244.2 47.55C243.42 46.63 242.84 45.58 242.46 44.4C242.08 43.22 241.89 41.98 241.89 40.68C241.89 39.36 242.12 38.14 242.58 37.02C243.06 35.88 243.71 34.89 244.53 34.05C245.37 33.21 246.35 32.56 247.47 32.1C248.59 31.62 249.81 31.38 251.13 31.38C252.51 31.38 253.79 31.62 254.97 32.1C256.15 32.58 257.18 33.25 258.06 34.11C258.94 34.97 259.62 35.98 260.1 37.14C260.6 38.3 260.85 39.56 260.85 40.92C260.85 43.94 260.02 46.29 258.36 47.97C256.7 49.63 254.36 50.46 251.34 50.46ZM251.31 45.6C252.77 45.6 253.88 45.19 254.64 44.37C255.42 43.55 255.81 42.37 255.81 40.83C255.81 39.45 255.39 38.34 254.55 37.5C253.71 36.66 252.61 36.24 251.25 36.24C250.43 36.24 249.68 36.46 249 36.9C248.32 37.32 247.77 37.89 247.35 38.61C246.95 39.31 246.75 40.09 246.75 40.95C246.75 41.71 246.9 42.45 247.2 43.17C247.52 43.89 248.02 44.48 248.7 44.94C249.38 45.38 250.25 45.6 251.31 45.6ZM269.862 50.46C268.202 50.46 266.792 49.17 265.632 46.59C265.232 45.67 264.882 44.66 264.582 43.56C264.282 42.46 264.022 41.34 263.802 40.2C263.602 39.06 263.432 37.97 263.292 36.93C263.172 35.87 263.072 34.94 262.992 34.14C262.932 33.32 262.882 32.7 262.842 32.28L267.762 31.14C268.002 35.68 268.362 39.13 268.842 41.49C269.342 43.85 269.722 45.03 269.982 45.03C270.122 45.03 270.292 44.75 270.492 44.19C270.712 43.63 270.952 42.89 271.212 41.97C271.472 41.03 271.722 40 271.962 38.88C272.202 37.76 272.412 36.63 272.592 35.49C272.352 34.03 272.192 32.87 272.112 32.01L277.182 31.83V32.19C277.182 33.01 277.242 33.97 277.362 35.07C277.482 36.17 277.632 37.31 277.812 38.49C277.992 39.65 278.182 40.73 278.382 41.73C278.602 42.73 278.812 43.54 279.012 44.16C279.212 44.78 279.382 45.09 279.522 45.09C279.642 45.09 279.812 44.82 280.032 44.28C280.252 43.74 280.492 43 280.752 42.06C281.032 41.12 281.312 40.05 281.592 38.85C281.872 37.63 282.142 36.35 282.402 35.01C282.662 33.65 282.872 32.3 283.032 30.96L287.982 32.01C287.642 33.91 287.232 35.8 286.752 37.68C286.292 39.54 285.802 41.27 285.282 42.87C284.762 44.45 284.252 45.78 283.752 46.86C282.632 49.24 281.242 50.43 279.582 50.43C279.042 50.43 278.422 50.26 277.722 49.92C277.042 49.6 276.412 48.92 275.832 47.88C275.632 47.5 275.432 47.04 275.232 46.5C275.032 45.96 274.842 45.36 274.662 44.7C274.422 45.44 274.182 46.1 273.942 46.68C272.882 49.2 271.522 50.46 269.862 50.46Z" fill="#70D770"/>
</svg>
