<svg width="49" height="76" viewBox="0 0 49 76" fill="none" xmlns="http://www.w3.org/2000/svg">
<mask id="path-1-inside-1_2015_1213" fill="white">
<path d="M46.5723 51.0439H40.709L40.3428 74.1914H32.0186V75.5615H14.5537V74.1914H6.02539L5.8418 51.0439H0V37.4609H46.5723V51.0439Z"/>
</mask>
<path d="M46.5723 51.0439H40.709L40.3428 74.1914H32.0186V75.5615H14.5537V74.1914H6.02539L5.8418 51.0439H0V37.4609H46.5723V51.0439Z" fill="#99311D"/>
<path d="M46.5723 51.0439V52.0439H47.5723V51.0439H46.5723ZM40.709 51.0439V50.0439H39.7247L39.7091 51.0281L40.709 51.0439ZM40.3428 74.1914V75.1914H41.3271L41.3426 74.2072L40.3428 74.1914ZM32.0186 74.1914V73.1914H31.0186V74.1914H32.0186ZM32.0186 75.5615V76.5615H33.0186V75.5615H32.0186ZM14.5537 75.5615H13.5537V76.5615H14.5537V75.5615ZM14.5537 74.1914H15.5537V73.1914H14.5537V74.1914ZM6.02539 74.1914L5.02542 74.1993L5.03329 75.1914H6.02539V74.1914ZM5.8418 51.0439L6.84177 51.036L6.8339 50.0439H5.8418V51.0439ZM0 51.0439H-1V52.0439H0V51.0439ZM0 37.4609V36.4609H-1V37.4609H0ZM46.5723 37.4609H47.5723V36.4609H46.5723V37.4609ZM46.5723 51.0439V50.0439H40.709V51.0439V52.0439H46.5723V51.0439ZM40.709 51.0439L39.7091 51.0281L39.3429 74.1756L40.3428 74.1914L41.3426 74.2072L41.7089 51.0598L40.709 51.0439ZM40.3428 74.1914V73.1914H32.0186V74.1914V75.1914H40.3428V74.1914ZM32.0186 74.1914H31.0186V75.5615H32.0186H33.0186V74.1914H32.0186ZM32.0186 75.5615V74.5615H14.5537V75.5615V76.5615H32.0186V75.5615ZM14.5537 75.5615H15.5537V74.1914H14.5537H13.5537V75.5615H14.5537ZM14.5537 74.1914V73.1914H6.02539V74.1914V75.1914H14.5537V74.1914ZM6.02539 74.1914L7.02536 74.1835L6.84177 51.036L5.8418 51.0439L4.84183 51.0519L5.02542 74.1993L6.02539 74.1914ZM5.8418 51.0439V50.0439H0V51.0439V52.0439H5.8418V51.0439ZM0 51.0439H1V37.4609H0H-1V51.0439H0ZM0 37.4609V38.4609H46.5723V37.4609V36.4609H0V37.4609ZM46.5723 37.4609H45.5723V51.0439H46.5723H47.5723V37.4609H46.5723Z" fill="white" mask="url(#path-1-inside-1_2015_1213)"/>
<path d="M15.0861 16.2594C14.2798 16.0288 13.846 15.1551 14.1498 14.3734C14.3627 13.8257 14.8901 13.4648 15.4777 13.4648H15.9169C16.1969 13.4648 16.474 13.5218 16.7314 13.6321L17.1562 13.8143C17.8275 14.1022 18.4149 14.5557 18.8632 15.1325L20.4895 17.2246C21.3862 18.3781 22.5609 19.2852 23.9036 19.861C24.9788 20.3221 26.1366 20.5599 27.3065 20.5599H28.2909H29.5892C29.9377 20.5599 30.2747 20.6846 30.5392 20.9115L30.86 21.1866C30.9796 21.2892 31.0485 21.4389 31.0485 21.5965C31.0485 21.8948 30.8067 22.1366 30.5084 22.1366H28.2036C27.6668 22.1366 27.1477 22.3287 26.7402 22.6782C26.5497 22.8415 26.388 23.0356 26.2616 23.2523L26.0993 23.5307C25.7286 24.1665 25.5333 24.8894 25.5333 25.6254V38.6917H21.8565V24.5016C21.8565 22.0279 20.6622 19.7063 18.6496 18.2679L16.6588 16.8451C16.4487 16.6949 16.2144 16.5819 15.9661 16.5109L15.0861 16.2594Z" fill="#0A910A"/>
<path d="M28.4229 21.0626C28.2808 20.0115 28.3386 18.966 28.5963 17.9263C28.8541 16.8865 29.3011 15.949 29.9373 15.1137C30.5735 14.2784 31.3613 13.5742 32.3006 13.0012C33.2399 12.4282 34.3402 12.0564 35.6015 11.8858C36.419 11.7752 37.2954 11.8142 38.2307 12.0029C39.166 12.1915 40.1742 12.5457 41.2554 13.0654C42.3365 13.5852 43.4922 14.2821 44.7224 15.1563C45.9526 16.0305 47.2597 17.0995 48.6436 18.3631C47.6792 19.8493 46.7277 21.1673 45.7891 22.317C44.8505 23.4667 43.9306 24.4474 43.0296 25.259C42.1285 26.0706 41.2454 26.7074 40.3803 27.1693C39.5151 27.6312 38.6621 27.919 37.8213 28.0328C36.5833 28.2002 35.4462 28.1459 34.4099 27.8698C33.3736 27.5938 32.4444 27.1427 31.6224 26.5165C30.7606 25.8601 30.0474 25.0498 29.4829 24.0855C28.9184 23.1213 28.5651 22.1136 28.4229 21.0626ZM30.8927 22.441C31.1055 22.9593 31.3763 23.4221 31.7049 23.8296C32.0336 24.237 32.41 24.6024 32.8343 24.9255C33.4442 25.3901 34.1408 25.727 34.9243 25.9361C35.7078 26.1453 36.5783 26.1851 37.536 26.0556C37.9564 25.9987 38.4534 25.8483 39.0269 25.6042C39.6004 25.3601 40.2417 24.9582 40.9509 24.3985C41.6601 23.8388 42.4373 23.1004 43.2825 22.1833C44.1277 21.2662 45.0372 20.0996 46.0111 18.6835C45.3817 18.1622 44.6567 17.5942 43.8363 16.9798C43.0158 16.3653 42.1558 15.8097 41.2561 15.313C40.3565 14.8163 39.441 14.4228 38.5098 14.1325C37.5787 13.8422 36.7043 13.7524 35.8868 13.863C34.8357 14.0051 33.9753 14.2821 33.3055 14.6938C32.6358 15.1054 32.0939 15.5831 31.6798 16.1267C31.084 16.9089 30.7105 17.7087 30.5594 18.5259C30.4083 19.3431 30.3546 19.9569 30.3982 20.3673C31.763 19.7307 33.2739 19.2736 34.931 18.996C36.5881 18.7183 38.2639 18.7325 39.9583 19.0384C38.3675 19.1466 36.816 19.4575 35.3038 19.9713C33.7916 20.485 32.3212 21.3083 30.8927 22.441Z" fill="#0A910A"/>
<path d="M16.6551 14.5923C17.4051 13.8423 17.9926 12.9756 18.4176 11.9923C18.8426 11.009 19.0551 9.99231 19.0551 8.94231C19.0551 7.89231 18.8551 6.85481 18.4551 5.82981C18.0551 4.80481 17.4051 3.84231 16.5051 2.94231C15.9217 2.35897 15.2009 1.85897 14.3426 1.44231C13.4842 1.02564 12.4676 0.696474 11.2926 0.454808C10.1176 0.213141 8.77589 0.0673077 7.26755 0.0173077C5.75922 -0.0326923 4.07172 0.025641 2.20505 0.192308C2.07172 1.95897 2.03005 3.58397 2.08005 5.06731C2.13005 6.55064 2.26755 7.88814 2.49255 9.07981C2.71755 10.2715 3.03422 11.3131 3.44255 12.2048C3.85089 13.0965 4.35505 13.8423 4.95505 14.4423C5.83839 15.3256 6.77589 15.9715 7.76755 16.3798C8.75922 16.7881 9.77172 16.9923 10.8051 16.9923C11.8884 16.9923 12.9467 16.7798 13.9801 16.3548C15.0134 15.9298 15.9051 15.3423 16.6551 14.5923ZM13.8551 14.1923C13.3717 14.4756 12.8759 14.6798 12.3676 14.8048C11.8592 14.9298 11.3384 14.9923 10.8051 14.9923C10.0384 14.9923 9.28005 14.8381 8.53005 14.5298C7.78005 14.2215 7.06339 13.7256 6.38005 13.0423C6.08005 12.7423 5.77589 12.3215 5.46755 11.7798C5.15922 11.2381 4.89255 10.5298 4.66755 9.65481C4.44255 8.77981 4.27172 7.72147 4.15505 6.47981C4.03839 5.23814 4.02172 3.75897 4.10505 2.04231C4.92172 2.00897 5.84255 1.99647 6.86755 2.00481C7.89255 2.01314 8.91339 2.09231 9.93005 2.24231C10.9467 2.39231 11.9134 2.63397 12.8301 2.96731C13.7467 3.30064 14.4967 3.75897 15.0801 4.34231C15.8301 5.09231 16.3467 5.83397 16.6301 6.56731C16.9134 7.30064 17.0551 8.00897 17.0551 8.69231C17.0551 9.67564 16.8676 10.5381 16.4926 11.2798C16.1176 12.0215 15.7884 12.5423 15.5051 12.8423C14.8051 11.509 13.8801 10.2298 12.7301 9.00481C11.5801 7.77981 10.2384 6.77564 8.70505 5.99231C9.90505 7.04231 10.9509 8.22981 11.8426 9.55481C12.7342 10.8798 13.4051 12.4256 13.8551 14.1923Z" fill="#0A910A"/>
</svg>
